<?xml version="1.0" encoding="UTF-8" standalone="no"?>
<svg
   xmlns:dc="http://purl.org/dc/elements/1.1/"
   xmlns:cc="http://creativecommons.org/ns#"
   xmlns:rdf="http://www.w3.org/1999/02/22-rdf-syntax-ns#"
   xmlns:svg="http://www.w3.org/2000/svg"
   xmlns="http://www.w3.org/2000/svg"
   xmlns:sodipodi="http://sodipodi.sourceforge.net/DTD/sodipodi-0.dtd"
   xmlns:inkscape="http://www.inkscape.org/namespaces/inkscape"
   width="793.700787402"
   height="1122.51968504"
   version="1.1"
   id="svg4005"
   sodipodi:docname="Picnic Table Template.svg"
   inkscape:version="0.92.2 (5c3e80d, 2017-08-06)">
  <metadata
     id="metadata4009">
    <rdf:RDF>
      <cc:Work
         rdf:about="">
        <dc:format>image/svg+xml</dc:format>
        <dc:type
           rdf:resource="http://purl.org/dc/dcmitype/StillImage" />
        <dc:title></dc:title>
      </cc:Work>
    </rdf:RDF>
  </metadata>
  <sodipodi:namedview
     pagecolor="#ffffff"
     bordercolor="#666666"
     borderopacity="1"
     objecttolerance="10"
     gridtolerance="10"
     guidetolerance="10"
     inkscape:pageopacity="0"
     inkscape:pageshadow="2"
     inkscape:window-width="1366"
     inkscape:window-height="705"
     id="namedview4007"
     showgrid="false"
     inkscape:zoom="0.059687151"
     inkscape:cx="1767.0233"
     inkscape:cy="1261.6275"
     inkscape:window-x="-8"
     inkscape:window-y="-8"
     inkscape:window-maximized="1"
     inkscape:current-layer="g4003" />
  <desc
     id="desc3699">C:\Users\Bar\Desktop\Picnic Table\Picnic Table Template.dxf - scale = 1.000000, origin = (0.000000, 0.000000), method = manual</desc>
  <defs
     id="defs3713">
    <marker
       id="DistanceX"
       orient="auto"
       refX="0.0"
       refY="0.0"
       style="overflow:visible">
      <path
         d="M 3,-3 L -3,3 M 0,-5 L  0,5"
         style="stroke:#000000; stroke-width:0.5"
         id="path3701" />
    </marker>
    <pattern
       height="8"
       id="Hatch"
       patternUnits="userSpaceOnUse"
       width="8"
       x="0"
       y="0">
      <path
         d="M8 4 l-4,4"
         linecap="square"
         stroke="#000000"
         stroke-width="0.25"
         id="path3704" />
      <path
         d="M6 2 l-4,4"
         linecap="square"
         stroke="#000000"
         stroke-width="0.25"
         id="path3706" />
      <path
         d="M4 0 l-4,4"
         linecap="square"
         stroke="#000000"
         stroke-width="0.25"
         id="path3708" />
    </pattern>
    <symbol
       id="*MODEL_SPACE" />
    <symbol
       id="*PAPER_SPACE" />
  </defs>
  <g
     inkscape:groupmode="layer"
     inkscape:label="0"
     id="g3715" />
  <g
     inkscape:groupmode="layer"
     inkscape:label="ANNOTATION_TEXT"
     id="g3721">
    <text
       style="font-size: 13.2px; fill: #000000; font-family: Arial"
       x="3799.482497"
       y="447.553270"
       id="text3719">
      <tspan
         sodipodi:role="line"
         id="tspan3717" />
    </text>
  </g>
  <g
     inkscape:groupmode="layer"
     inkscape:label="VISIBLE"
     id="g4003">
    <path
       d="M 6871.482497,-0.660903 5866.897691,-0.660903"
       style="stroke:#000000;fill:none"
       id="path3723" />
    <path
       d="M 5674.897691,-0.660903 A 96.000000,96.000000 -0.000000 0 0 5866.897691,-0.660903"
       style="stroke:#000000;fill:none"
       id="path3725" />
    <path
       d="M 5674.897691,-0.660903 5236.938888,-0.660903"
       style="stroke:#000000;fill:none"
       id="path3727" />
    <path
       d="M 5044.938888,-0.660903 A 96.000000,96.000000 -0.000000 0 0 5236.938888,-0.660903"
       style="stroke:#000000;fill:none"
       id="path3729" />
    <path
       d="M 5044.938888,-0.660903 4876.141282,-0.660903"
       style="stroke:#000000;fill:none"
       id="path3731" />
    <path
       d="M 4684.141282,-0.660903 A 96.000000,96.000000 -0.000000 0 0 4876.141282,-0.660903"
       style="stroke:#000000;fill:none"
       id="path3733" />
    <path
       d="M 4684.141282,-0.660903 4230.548797,-0.660903"
       style="stroke:#000000;fill:none"
       id="path3735" />
    <path
       d="M 4230.548797,-0.660903 4230.548797,-89.155810"
       style="stroke:#000000;fill:none"
       id="path3737" />
    <path
       d="M 4230.548797,-89.155810 A 24.960000,24.960000 -0.000000 0 0 4205.588797,-114.115810"
       style="stroke:#000000;fill:none"
       id="path3739" />
    <path
       d="M 4111.508797,-114.115810 4205.588797,-114.115810"
       style="stroke:#000000;fill:none"
       id="path3741" />
    <path
       d="M 4111.508797,-114.115810 A 24.960000,24.960000 -0.000000 0 0 4086.548797,-89.155810"
       style="stroke:#000000;fill:none"
       id="path3743" />
    <path
       d="M 4086.548797,-0.660903 4086.548797,-89.155810"
       style="stroke:#000000;fill:none"
       id="path3745" />
    <path
       d="M 4086.548797,-0.660903 3307.787246,-0.660903"
       style="stroke:#000000;fill:none"
       id="path3747" />
    <path
       d="M 3307.787246,-0.660903 3307.787246,-89.155810"
       style="stroke:#000000;fill:none"
       id="path3749" />
    <path
       d="M 3307.787246,-89.155810 A 24.960000,24.960000 -0.000000 0 0 3282.827246,-114.115810"
       style="stroke:#000000;fill:none"
       id="path3751" />
    <path
       d="M 3188.747246,-114.115810 3282.827246,-114.115810"
       style="stroke:#000000;fill:none"
       id="path3753" />
    <path
       d="M 3188.747246,-114.115810 A 24.960000,24.960000 -0.000000 0 0 3163.787246,-89.155810"
       style="stroke:#000000;fill:none"
       id="path3755" />
    <path
       d="M 3163.787246,-0.660903 3163.787246,-89.155810"
       style="stroke:#000000;fill:none"
       id="path3757" />
    <path
       d="M 3163.787246,-0.660903 2716.897691,-0.660903"
       style="stroke:#000000;fill:none"
       id="path3759" />
    <path
       d="M 2524.897691,-0.660903 A 96.000000,96.000000 -0.000000 0 0 2716.897691,-0.660903"
       style="stroke:#000000;fill:none"
       id="path3761" />
    <path
       d="M 2524.897691,-0.660903 2421.122013,-0.660903"
       style="stroke:#000000;fill:none"
       id="path3763" />
    <path
       d="M 2229.122013,-0.660903 A 96.000000,96.000000 -0.000000 0 0 2421.122013,-0.660903"
       style="stroke:#000000;fill:none"
       id="path3765" />
    <path
       d="M 2229.122013,-0.660903 727.482497,-0.660903"
       style="stroke:#000000;fill:none"
       id="path3767" />
    <path
       d="M 343.482497,-384.660903 A 384.000000,384.000000 -0.000000 0 0 727.482497,-0.660903"
       style="stroke:#000000;fill:none"
       id="path3769" />
    <path
       d="M 343.482497,-540.660903 343.482497,-384.660903"
       style="stroke:#000000;fill:none"
       id="path3771" />
    <path
       d="M 1337.963041,-540.660903 343.482497,-540.660903"
       style="stroke:#000000;fill:none"
       id="path3773" />
    <path
       d="M 1529.963041,-540.660903 A 96.000000,96.000000 -0.000000 0 0 1337.963041,-540.660903"
       style="stroke:#000000;fill:none"
       id="path3775" />
    <path
       d="M 2830.897691,-540.660903 1529.963041,-540.660903"
       style="stroke:#000000;fill:none"
       id="path3777" />
    <path
       d="M 3022.897691,-540.660903 A 96.000000,96.000000 -0.000000 0 0 2830.897691,-540.660903"
       style="stroke:#000000;fill:none"
       id="path3779" />
    <path
       d="M 3163.787246,-540.660903 3022.897691,-540.660903"
       style="stroke:#000000;fill:none"
       id="path3781" />
    <path
       d="M 3163.787246,-540.660903 3163.787246,-475.075810"
       style="stroke:#000000;fill:none"
       id="path3783" />
    <path
       d="M 3163.787246,-475.075810 A 24.960000,24.960000 -0.000000 0 0 3188.747246,-450.115810"
       style="stroke:#000000;fill:none"
       id="path3785" />
    <path
       d="M 3188.747246,-450.115810 3282.827246,-450.115810"
       style="stroke:#000000;fill:none"
       id="path3787" />
    <path
       d="M 3282.827246,-450.115810 A 24.960000,24.960000 -0.000000 0 0 3307.787246,-475.075810"
       style="stroke:#000000;fill:none"
       id="path3789" />
    <path
       d="M 3307.787246,-540.660903 3307.787246,-475.075810"
       style="stroke:#000000;fill:none"
       id="path3791" />
    <path
       d="M 4086.548797,-540.660903 3307.787246,-540.660903"
       style="stroke:#000000;fill:none"
       id="path3793" />
    <path
       d="M 4086.548797,-540.660903 4086.548797,-475.075810"
       style="stroke:#000000;fill:none"
       id="path3795" />
    <path
       d="M 4086.548797,-475.075810 A 24.960000,24.960000 -0.000000 0 0 4111.508797,-450.115810"
       style="stroke:#000000;fill:none"
       id="path3797" />
    <path
       d="M 4111.508797,-450.115810 4205.588797,-450.115810"
       style="stroke:#000000;fill:none"
       id="path3799" />
    <path
       d="M 4205.588797,-450.115810 A 24.960000,24.960000 -0.000000 0 0 4230.548797,-475.075810"
       style="stroke:#000000;fill:none"
       id="path3801" />
    <path
       d="M 4230.548797,-540.660903 4230.548797,-475.075810"
       style="stroke:#000000;fill:none"
       id="path3803" />
    <path
       d="M 4491.344802,-540.660903 4230.548797,-540.660903"
       style="stroke:#000000;fill:none"
       id="path3805" />
    <path
       d="M 4683.344802,-540.660903 A 96.000000,96.000000 -0.000000 0 0 4491.344802,-540.660903"
       style="stroke:#000000;fill:none"
       id="path3807" />
    <path
       d="M 5980.897691,-540.660903 4683.344802,-540.660903"
       style="stroke:#000000;fill:none"
       id="path3809" />
    <path
       d="M 6172.897691,-540.660903 A 96.000000,96.000000 -0.000000 0 0 5980.897691,-540.660903"
       style="stroke:#000000;fill:none"
       id="path3811" />
    <path
       d="M 7255.482497,-540.660903 6172.897691,-540.660903"
       style="stroke:#000000;fill:none"
       id="path3813" />
    <path
       d="M 7255.482497,-540.660903 7255.482497,-384.660903"
       style="stroke:#000000;fill:none"
       id="path3815" />
    <path
       d="M 6871.482497,-0.660903 A 384.000000,384.000000 -0.000000 0 0 7255.482497,-384.660903"
       style="stroke:#000000;fill:none"
       id="path3817" />
    <path
       d="M 6115.498835,-546.372425 A 16.848000,16.848000 -0.000000 1 0 6086.182567,-562.984976"
       style="stroke:#000000;fill:none"
       id="path3819" />
    <path
       d="M 5756.517964,18.776088 6086.182567,-562.984976"
       style="stroke:#000000;fill:none"
       id="path3821" />
    <path
       d="M 5785.834231,35.388640 6115.498835,-546.372425"
       style="stroke:#000000;fill:none"
       id="path3823" />
    <path
       d="M 3141.212355,-354.115810 A 12.480000,12.480000 -0.000000 1 0 3116.252355,-354.115810 12.480000,12.480000 -0.000000 1 0 3141.212355,-354.115810 z"
       style="stroke:#000000;fill:none"
       id="path3825" />
    <path
       d="M 2951.906010,-368.048502 A 12.480000,12.480000 -0.000000 1 0 2926.946010,-368.048502 12.480000,12.480000 -0.000000 1 0 2951.906010,-368.048502 z"
       style="stroke:#000000;fill:none"
       id="path3827" />
    <path
       d="M 3006.195394,-171.771496 A 12.480000,12.480000 -0.000000 1 0 2981.235394,-171.771496 12.480000,12.480000 -0.000000 1 0 3006.195394,-171.771496 z"
       style="stroke:#000000;fill:none"
       id="path3829" />
    <path
       d="M 4317.068696,-457.716332 A 12.480000,12.480000 -0.000000 1 0 4292.108696,-457.716332 12.480000,12.480000 -0.000000 1 0 4317.068696,-457.716332 z"
       style="stroke:#000000;fill:none"
       id="path3831" />
    <path
       d="M 2941.277417,-560.097895 A 16.848000,16.848000 -0.000000 0 0 2911.961150,-576.710446"
       style="stroke:#000000;fill:none"
       id="path3833" />
    <path
       d="M 2582.296546,5.050618 2911.961150,-576.710446"
       style="stroke:#000000;fill:none"
       id="path3835" />
    <path
       d="M 2582.296546,5.050618 A 16.848000,16.848000 -0.000000 0 0 2611.612814,21.663170"
       style="stroke:#000000;fill:none"
       id="path3837" />
    <path
       d="M 2611.612814,21.663170 2941.277417,-560.097895"
       style="stroke:#000000;fill:none"
       id="path3839" />
    <path
       d="M 5157.500355,-66.115810 5157.500355,-210.115810"
       style="stroke:#000000;fill:none"
       id="path3841" />
    <path
       d="M 5157.500355,-210.115810 A 270.768000,270.768000 -0.000000 0 0 4886.732355,-480.883810"
       style="stroke:#000000;fill:none"
       id="path3843" />
    <path
       d="M 4886.732355,-480.883810 4838.732355,-480.883810"
       style="stroke:#000000;fill:none"
       id="path3845" />
    <path
       d="M 4838.732355,-480.883810 A 16.848000,16.848000 -0.000000 0 0 4838.732355,-447.187810"
       style="stroke:#000000;fill:none"
       id="path3847" />
    <path
       d="M 5123.804355,-66.115810 5123.804355,-210.115810"
       style="stroke:#000000;fill:none"
       id="path3849" />
    <path
       d="M 5123.804355,-66.115810 A 16.848000,16.848000 -0.000000 0 0 5157.500355,-66.115810"
       style="stroke:#000000;fill:none"
       id="path3851" />
    <path
       d="M 4568.589537,-492.710936 4625.955686,-363.864455"
       style="stroke:#000000;fill:none"
       id="path3853" />
    <path
       d="M 4625.955686,-363.864455 A 15.408000,15.408000 -0.000000 0 0 4654.627806,-352.858260"
       style="stroke:#000000;fill:none"
       id="path3855" />
    <path
       d="M 4766.339194,-402.595374 4654.627806,-352.858260"
       style="stroke:#000000;fill:none"
       id="path3857" />
    <path
       d="M 4766.339194,-402.595374 4822.527421,-276.394550"
       style="stroke:#000000;fill:none"
       id="path3859" />
    <path
       d="M 4822.527421,-276.394550 4710.816033,-226.657436"
       style="stroke:#000000;fill:none"
       id="path3861" />
    <path
       d="M 4710.816033,-226.657436 A 15.408000,15.408000 -0.000000 0 0 4699.809837,-197.985316"
       style="stroke:#000000;fill:none"
       id="path3863" />
    <path
       d="M 4699.809837,-197.985316 4757.175986,-69.138835"
       style="stroke:#000000;fill:none"
       id="path3865" />
    <path
       d="M 4757.175986,-69.138835 A 16.960883,16.960883 -0.000000 1 0 4789.080656,-80.324534"
       style="stroke:#000000;fill:none"
       id="path3867" />
    <path
       d="M 4735.465101,-200.747044 4789.080656,-80.324534"
       style="stroke:#000000;fill:none"
       id="path3869" />
    <path
       d="M 4867.015647,-259.317121 4735.465101,-200.747044"
       style="stroke:#000000;fill:none"
       id="path3871" />
    <path
       d="M 4783.416624,-447.083600 4867.015647,-259.317121"
       style="stroke:#000000;fill:none"
       id="path3873" />
    <path
       d="M 4783.416624,-447.083600 4651.866078,-388.513523"
       style="stroke:#000000;fill:none"
       id="path3875" />
    <path
       d="M 4598.250522,-508.936033 4651.866078,-388.513523"
       style="stroke:#000000;fill:none"
       id="path3877" />
    <path
       d="M 4598.250522,-508.936033 A 16.960883,16.960883 -0.000000 1 0 4568.589537,-492.710936"
       style="stroke:#000000;fill:none"
       id="path3879" />
    <path
       d="M 3636.693836,-118.781167 A 15.408000,15.408000 -0.000000 0 0 3658.410497,-140.497829"
       style="stroke:#000000;fill:none"
       id="path3881" />
    <path
       d="M 3658.410497,-140.497829 3658.410497,-246.920505"
       style="stroke:#000000;fill:none"
       id="path3883" />
    <path
       d="M 3658.410497,-246.920505 A 15.408000,15.408000 -0.000000 0 0 3636.693836,-268.637167"
       style="stroke:#000000;fill:none"
       id="path3885" />
    <path
       d="M 3530.271159,-268.637167 3636.693836,-268.637167"
       style="stroke:#000000;fill:none"
       id="path3887" />
    <path
       d="M 3530.271159,-268.637167 A 15.408000,15.408000 -0.000000 0 0 3508.554497,-246.920505"
       style="stroke:#000000;fill:none"
       id="path3889" />
    <path
       d="M 3508.554497,-246.920505 3508.554497,-140.497829"
       style="stroke:#000000;fill:none"
       id="path3891" />
    <path
       d="M 3508.554497,-140.497829 A 15.408000,15.408000 -0.000000 0 0 3530.271159,-118.781167"
       style="stroke:#000000;fill:none"
       id="path3893" />
    <path
       d="M 3530.271159,-118.781167 3636.693836,-118.781167"
       style="stroke:#000000;fill:none"
       id="path3895" />
    <path
       d="M 3985.964355,-336.883810 3985.964355,-498.115810"
       style="stroke:#000000;fill:none"
       id="path3897" />
    <path
       d="M 3903.500355,-336.883810 3985.964355,-336.883810"
       style="stroke:#000000;fill:none"
       id="path3899" />
    <path
       d="M 3903.500355,-498.115810 3903.500355,-336.883810"
       style="stroke:#000000;fill:none"
       id="path3901" />
    <path
       d="M 3903.500355,-498.115810 A 16.848000,16.848000 -0.000000 0 0 3869.804355,-498.115810"
       style="stroke:#000000;fill:none"
       id="path3903" />
    <path
       d="M 3869.804355,-324.904472 3869.804355,-498.115810"
       style="stroke:#000000;fill:none"
       id="path3905" />
    <path
       d="M 3869.804355,-324.904472 A 15.408000,15.408000 -0.000000 0 0 3891.521017,-303.187810"
       style="stroke:#000000;fill:none"
       id="path3907" />
    <path
       d="M 4019.660355,-498.115810 4019.660355,-324.904472"
       style="stroke:#000000;fill:none"
       id="path3909" />
    <path
       d="M 4019.660355,-498.115810 A 16.848000,16.848000 -0.000000 0 0 3985.964355,-498.115810"
       style="stroke:#000000;fill:none"
       id="path3911" />
    <path
       d="M 1831.965810,-83.347810 A 16.848000,16.848000 -0.000000 0 0 1831.965810,-117.043810"
       style="stroke:#000000;fill:none"
       id="path3913" />
    <path
       d="M 1783.965810,-117.043810 1831.965810,-117.043810"
       style="stroke:#000000;fill:none"
       id="path3915" />
    <path
       d="M 1639.650271,-156.272221 A 285.072000,285.072000 -0.000000 0 0 1783.965810,-117.043810"
       style="stroke:#000000;fill:none"
       id="path3917" />
    <path
       d="M 1600.002758,-179.546174 1639.650271,-156.272221"
       style="stroke:#000000;fill:none"
       id="path3919" />
    <path
       d="M 1600.002758,-179.546174 A 41.328000,41.328000 -0.000000 0 0 1562.271160,-181.660276"
       style="stroke:#000000;fill:none"
       id="path3921" />
    <path
       d="M 1451.429585,-132.310428 1562.271160,-181.660276"
       style="stroke:#000000;fill:none"
       id="path3923" />
    <path
       d="M 1395.241359,-258.511252 1451.429585,-132.310428"
       style="stroke:#000000;fill:none"
       id="path3925" />
    <path
       d="M 1506.952747,-308.248366 1395.241359,-258.511252"
       style="stroke:#000000;fill:none"
       id="path3927" />
    <path
       d="M 1506.952747,-308.248366 A 15.408000,15.408000 -0.000000 0 0 1517.958942,-336.920486"
       style="stroke:#000000;fill:none"
       id="path3929" />
    <path
       d="M 1517.958942,-336.920486 1447.536078,-495.092828"
       style="stroke:#000000;fill:none"
       id="path3931" />
    <path
       d="M 1447.536078,-495.092828 A 16.960883,16.960883 -0.000000 1 0 1415.631408,-483.907130"
       style="stroke:#000000;fill:none"
       id="path3933" />
    <path
       d="M 1482.303679,-334.158758 1415.631408,-483.907130"
       style="stroke:#000000;fill:none"
       id="path3935" />
    <path
       d="M 1482.303679,-334.158758 1350.753133,-275.588682"
       style="stroke:#000000;fill:none"
       id="path3937" />
    <path
       d="M 1350.753133,-275.588682 1434.352156,-87.822202"
       style="stroke:#000000;fill:none"
       id="path3939" />
    <path
       d="M 1434.352156,-87.822202 1575.976557,-150.877449"
       style="stroke:#000000;fill:none"
       id="path3941" />
    <path
       d="M 1582.944414,-150.487040 A 7.632000,7.632000 -0.000000 0 0 1575.976557,-150.877449"
       style="stroke:#000000;fill:none"
       id="path3943" />
    <path
       d="M 1582.944414,-150.487040 1622.591927,-127.213086"
       style="stroke:#000000;fill:none"
       id="path3945" />
    <path
       d="M 1622.591927,-127.213086 A 318.768000,318.768000 -0.000000 0 0 1783.965810,-83.347810"
       style="stroke:#000000;fill:none"
       id="path3947" />
    <path
       d="M 1783.965810,-83.347810 1831.965810,-83.347810"
       style="stroke:#000000;fill:none"
       id="path3949" />
    <path
       d="M 4535.074058,-83.605475 A 12.480000,12.480000 -0.000000 1 0 4510.114058,-83.605475 12.480000,12.480000 -0.000000 1 0 4535.074058,-83.605475 z"
       style="stroke:#000000;fill:none"
       id="path3951" />
    <path
       d="M 3471.500355,-498.115810 A 16.848000,16.848000 -0.000000 0 0 3437.804355,-498.115810"
       style="stroke:#000000;fill:none"
       id="path3953" />
    <path
       d="M 3437.804355,-324.904472 3437.804355,-498.115810"
       style="stroke:#000000;fill:none"
       id="path3955" />
    <path
       d="M 3437.804355,-324.904472 A 15.408000,15.408000 -0.000000 0 0 3459.521017,-303.187810"
       style="stroke:#000000;fill:none"
       id="path3957" />
    <path
       d="M 3565.943693,-303.187810 3459.521017,-303.187810"
       style="stroke:#000000;fill:none"
       id="path3959" />
    <path
       d="M 3565.943693,-303.187810 A 15.408000,15.408000 -0.000000 0 0 3587.660355,-324.904472"
       style="stroke:#000000;fill:none"
       id="path3961" />
    <path
       d="M 3587.660355,-498.115810 3587.660355,-324.904472"
       style="stroke:#000000;fill:none"
       id="path3963" />
    <path
       d="M 3587.660355,-498.115810 A 16.848000,16.848000 -0.000000 0 0 3553.964355,-498.115810"
       style="stroke:#000000;fill:none"
       id="path3965" />
    <path
       d="M 3553.964355,-336.883810 3553.964355,-498.115810"
       style="stroke:#000000;fill:none"
       id="path3967" />
    <path
       d="M 3553.964355,-336.883810 3471.500355,-336.883810"
       style="stroke:#000000;fill:none"
       id="path3969" />
    <path
       d="M 3471.500355,-336.883810 3471.500355,-498.115810"
       style="stroke:#000000;fill:none"
       id="path3971" />
    <path
       d="M 2570.732355,-447.187810 A 16.848000,16.848000 -0.000000 0 0 2570.732355,-480.883810"
       style="stroke:#000000;fill:none"
       id="path3973" />
    <path
       d="M 2570.732355,-480.883810 A 270.768000,270.768000 -0.000000 0 0 2299.964355,-210.115810"
       style="stroke:#000000;fill:none"
       id="path3975" />
    <path
       d="M 2299.964355,-66.115810 2299.964355,-210.115810"
       style="stroke:#000000;fill:none"
       id="path3977" />
    <path
       d="M 2299.964355,-66.115810 A 16.848000,16.848000 -0.000000 0 0 2333.660355,-66.115810"
       style="stroke:#000000;fill:none"
       id="path3979" />
    <path
       d="M 2333.660355,-66.115810 2333.660355,-210.115810"
       style="stroke:#000000;fill:none"
       id="path3981" />
    <path
       d="M 2570.732355,-447.187810 A 237.072000,237.072000 -0.000000 0 0 2333.660355,-210.115810"
       style="stroke:#000000;fill:none"
       id="path3983" />
    <path
       d="M 2316.907129,-457.716332 A 12.480000,12.480000 -0.000000 1 0 2291.947129,-457.716332 12.480000,12.480000 -0.000000 1 0 2316.907129,-457.716332 z"
       style="stroke:#000000;fill:none"
       id="path3985" />
    <path
       d="M 2534.912490,-83.605475 A 12.480000,12.480000 -0.000000 1 0 2509.952490,-83.605475 12.480000,12.480000 -0.000000 1 0 2534.912490,-83.605475 z"
       style="stroke:#000000;fill:none"
       id="path3987" />
    <path
       d="M 5089.012505,-83.605475 A 12.480000,12.480000 -0.000000 1 0 5064.052505,-83.605475 12.480000,12.480000 -0.000000 1 0 5089.012505,-83.605475 z"
       style="stroke:#000000;fill:none"
       id="path3989" />
    <path
       d="M 5307.017866,-457.716332 A 12.480000,12.480000 -0.000000 1 0 5282.057866,-457.716332 12.480000,12.480000 -0.000000 1 0 5307.017866,-457.716332 z"
       style="stroke:#000000;fill:none"
       id="path3991" />
    <path
       d="M 5123.804355,-210.115810 A 237.072000,237.072000 -0.000000 0 0 4886.732355,-447.187810"
       style="stroke:#000000;fill:none"
       id="path3993" />
    <path
       d="M 4886.732355,-447.187810 4838.732355,-447.187810"
       style="stroke:#000000;fill:none"
       id="path3995" />
    <path
       d="M 3997.943693,-303.187810 A 15.408000,15.408000 -0.000000 0 0 4019.660355,-324.904472"
       style="stroke:#000000;fill:none"
       id="path3997" />
    <path
       d="M 3891.521017,-303.187810 3997.943693,-303.187810"
       style="stroke:#000000;fill:none"
       id="path3999" />
    <path
       d="M 5756.517964,18.776088 A 16.848000,16.848000 -0.000000 1 0 5785.834231,35.388640"
       style="stroke:#000000;fill:none"
       id="path4001" />
  </g>
</svg>
