  0
SECTION
  2
HEADER
  9
$ACADVER
  1
AC1012
  9
$DWGCODEPAGE
  3
ansi_1252
  9
$INSBASE
 10
0.0
 20
0.0
 30
0.0
  9
$EXTMIN
 10
1.000000000000000E+20
 20
1.000000000000000E+20
 30
1.000000000000000E+20
  9
$EXTMAX
 10
-1.000000000000000E+20
 20
-1.000000000000000E+20
 30
-1.000000000000000E+20
  9
$LIMMIN
 10
0.0
 20
0.0
  9
$LIMMAX
 10
420.0
 20
297.0
  9
$ORTHOMODE
 70
     0
  9
$REGENMODE
 70
     1
  9
$FILLMODE
 70
     1
  9
$QTEXTMODE
 70
     0
  9
$MIRRTEXT
 70
     1
  9
$DRAGMODE
 70
     2
  9
$LTSCALE
 40
12.7
  9
$OSMODE
 70
    23
  9
$ATTMODE
 70
     1
  9
$TEXTSIZE
 40
3.5
  9
$TRACEWID
 40
1.0
  9
$TEXTSTYLE
  7
ONSHAPE-STANDARD
  9
$CLAYER
  8
0
  9
$CELTYPE
  6
BYLAYER
  9
$CECOLOR
 62
   256
  9
$CELTSCALE
 40
1.0
  9
$DELOBJ
 70
     1
  9
$DISPSILH
 70
     0
  9
$DIMSCALE
 40
1.0
  9
$DIMASZ
 40
2.5
  9
$DIMEXO
 40
0.625
  9
$DIMDLI
 40
3.75
  9
$DIMRND
 40
0.0
  9
$DIMDLE
 40
0.0
  9
$DIMEXE
 40
1.25
  9
$DIMTP
 40
0.0
  9
$DIMTM
 40
0.0
  9
$DIMTXT
 40
3.5
  9
$DIMCEN
 40
2.5
  9
$DIMTSZ
 40
0.0
  9
$DIMTOL
 70
     0
  9
$DIMLIM
 70
     0
  9
$DIMTIH
 70
     0
  9
$DIMTOH
 70
     0
  9
$DIMSE1
 70
     0
  9
$DIMSE2
 70
     0
  9
$DIMTAD
 70
     1
  9
$DIMZIN
 70
     8
  9
$DIMBLK
  1

  9
$DIMASO
 70
     1
  9
$DIMSHO
 70
     1
  9
$DIMPOST
  1

  9
$DIMAPOST
  1

  9
$DIMALT
 70
     0
  9
$DIMALTD
 70
     3
  9
$DIMALTF
 40
0.03937
  9
$DIMLFAC
 40
1.0
  9
$DIMTOFL
 70
     1
  9
$DIMTVP
 40
0.0
  9
$DIMTIX
 70
     0
  9
$DIMSOXD
 70
     0
  9
$DIMSAH
 70
     0
  9
$DIMBLK1
  1

  9
$DIMBLK2
  1

  9
$DIMSTYLE
  2
ONSHAPE-ISO-25
  9
$DIMCLRD
 70
     0
  9
$DIMCLRE
 70
     0
  9
$DIMCLRT
 70
     0
  9
$DIMTFAC
 40
1.0
  9
$DIMGAP
 40
0.625
  9
$DIMJUST
 70
     0
  9
$DIMSD1
 70
     0
  9
$DIMSD2
 70
     0
  9
$DIMTOLJ
 70
     0
  9
$DIMTZIN
 70
     8
  9
$DIMALTZ
 70
     8
  9
$DIMALTTZ
 70
     0
  9
$DIMFIT
 70
     3
  9
$DIMUPT
 70
     1
  9
$DIMUNIT
 70
     2
  9
$DIMDEC
 70
     2
  9
$DIMTDEC
 70
     2
  9
$DIMALTU
 70
     2
  9
$DIMALTTD
 70
     3
  9
$DIMTXSTY
  7
ONSHAPE-STANDARD-DIMENSION
  9
$DIMAUNIT
 70
     0
  9
$LUNITS
 70
     2
  9
$LUPREC
 70
     4
  9
$SKETCHINC
 40
1.0
  9
$FILLETRAD
 40
10.0
  9
$AUNITS
 70
     0
  9
$AUPREC
 70
     0
  9
$MENU
  1
.
  9
$ELEVATION
 40
0.0
  9
$PELEVATION
 40
0.0
  9
$THICKNESS
 40
0.0
  9
$LIMCHECK
 70
     0
  9
$CHAMFERA
 40
0.0
  9
$CHAMFERB
 40
0.0
  9
$CHAMFERC
 40
0.0
  9
$CHAMFERD
 40
0.0
  9
$SKPOLY
 70
     0
  9
$TDCREATE
 40
2458263.932037026
  9
$TDUPDATE
 40
2458263.932037026
  9
$TDINDWG
 40
0.0
  9
$TDUSRTIMER
 40
0.0
  9
$USRTIMER
 70
     1
  9
$ANGBASE
 50
0.0
  9
$ANGDIR
 70
     0
  9
$PDMODE
 70
     0
  9
$PDSIZE
 40
0.0
  9
$PLINEWID
 40
0.0
  9
$COORDS
 70
     1
  9
$SPLFRAME
 70
     0
  9
$SPLINETYPE
 70
     6
  9
$SPLINESEGS
 70
     8
  9
$ATTDIA
 70
     0
  9
$ATTREQ
 70
     1
  9
$HANDLING
 70
     1
  9
$HANDSEED
  5
116
  9
$SURFTAB1
 70
     6
  9
$SURFTAB2
 70
     6
  9
$SURFTYPE
 70
     6
  9
$SURFU
 70
     6
  9
$SURFV
 70
     6
  9
$UCSNAME
  2

  9
$UCSORG
 10
0.0
 20
0.0
 30
0.0
  9
$UCSXDIR
 10
1.0
 20
0.0
 30
0.0
  9
$UCSYDIR
 10
0.0
 20
1.0
 30
0.0
  9
$PUCSNAME
  2

  9
$PUCSORG
 10
0.0
 20
0.0
 30
0.0
  9
$PUCSXDIR
 10
1.0
 20
0.0
 30
0.0
  9
$PUCSYDIR
 10
0.0
 20
1.0
 30
0.0
  9
$USERI1
 70
     0
  9
$USERI2
 70
     0
  9
$USERI3
 70
     0
  9
$USERI4
 70
     0
  9
$USERI5
 70
     0
  9
$USERR1
 40
0.0
  9
$USERR2
 40
0.0
  9
$USERR3
 40
0.0
  9
$USERR4
 40
0.0
  9
$USERR5
 40
0.0
  9
$WORLDVIEW
 70
     1
  9
$SHADEDGE
 70
     3
  9
$SHADEDIF
 70
    70
  9
$TILEMODE
 70
     1
  9
$MAXACTVP
 70
    64
  9
$PINSBASE
 10
0.0
 20
0.0
 30
0.0
  9
$PLIMCHECK
 70
     0
  9
$PEXTMIN
 10
1.000000000000000E+20
 20
1.000000000000000E+20
 30
1.000000000000000E+20
  9
$PEXTMAX
 10
-1.000000000000000E+20
 20
-1.000000000000000E+20
 30
-1.000000000000000E+20
  9
$PLIMMIN
 10
0.0
 20
0.0
  9
$PLIMMAX
 10
420.0
 20
297.0
  9
$UNITMODE
 70
     0
  9
$VISRETAIN
 70
     1
  9
$PLINEGEN
 70
     0
  9
$PSLTSCALE
 70
     1
  9
$TREEDEPTH
 70
  3020
  9
$PICKSTYLE
 70
     1
  9
$CMLSTYLE
  2
STANDARD
  9
$CMLJUST
 70
     0
  9
$CMLSCALE
 40
20.0
  9
$SAVEIMAGES
 70
     1
  0
ENDSEC
  0
SECTION
  2
CLASSES
  0
CLASS
  1
ACDBDICTIONARYWDFLT
  2
AcDbDictionaryWithDefault
  3
ObjectDBX Classes
 90
    32768
280
     0
281
     0
  0
CLASS
  1
VISUALSTYLE
  2
AcDbVisualStyle
  3
ObjectDBX Classes
 90
     4095
280
     0
281
     0
  0
CLASS
  1
MATERIAL
  2
AcDbMaterial
  3
ObjectDBX Classes
 90
     1153
280
     0
281
     0
  0
CLASS
  1
SCALE
  2
AcDbScale
  3
ObjectDBX Classes
 90
     1153
280
     0
281
     0
  0
CLASS
  1
SUN
  2
AcDbSun
  3
SCENEOE
 90
     1153
280
     0
281
     0
  0
CLASS
  1
TABLESTYLE
  2
AcDbTableStyle
  3
ObjectDBX Classes
 90
     4095
280
     0
281
     0
  0
CLASS
  1
DICTIONARYVAR
  2
AcDbDictionaryVar
  3
ObjectDBX Classes
 90
        0
280
     0
281
     0
  0
CLASS
  1
XRECORD
  2
AcDbXrecord
  3
ObjectDBX Classes
 90
    32768
280
     0
281
     0
  0
CLASS
  1
LWPOLYLINE
  2
AcDbPolyline
  3
ObjectDBX Classes
 90
    32768
280
     0
281
     1
  0
CLASS
  1
HATCH
  2
AcDbHatch
  3
ObjectDBX Classes
 90
    32768
280
     0
281
     1
  0
CLASS
  1
ACDBPLACEHOLDER
  2
AcDbPlaceHolder
  3
ObjectDBX Classes
 90
        0
280
     0
281
     0
  0
CLASS
  1
LAYOUT
  2
AcDbLayout
  3
ObjectDBX Classes
 90
        0
280
     0
281
     0
  0
ENDSEC
  0
SECTION
  2
TABLES
  0
TABLE
  2
VPORT
  5
8
330
0
100
AcDbSymbolTable
 70
     1
  0
VPORT
  5
29
330
8
100
AcDbSymbolTableRecord
100
AcDbViewportTableRecord
  2
*ACTIVE
 70
     0
 10
0.0
 20
0.0
 11
1.0
 21
1.0
 12
1005.279744097167
 22
368.6123639650626
 13
0.0
 23
0.0
 14
10.0
 24
10.0
 15
10.0
 25
10.0
 16
0.0
 26
0.0
 36
1.0
 17
0.0
 27
0.0
 37
0.0
 40
197.5485
 41
9.442622950819672
 42
50.0
 43
0.0
 44
0.0
 50
0.0
 51
0.0
 71
     0
 72
   100
 73
     1
 74
     3
 75
     0
 76
     0
 77
     0
 78
     0
  0
ENDTAB
  0
TABLE
  2
LTYPE
  5
5
330
0
100
AcDbSymbolTable
 70
     1
  0
LTYPE
  5
14
330
5
100
AcDbSymbolTableRecord
100
AcDbLinetypeTableRecord
  2
BYBLOCK
 70
     0
  3

 72
    65
 73
     0
 40
0.0
  0
LTYPE
  5
15
330
5
100
AcDbSymbolTableRecord
100
AcDbLinetypeTableRecord
  2
BYLAYER
 70
     0
  3

 72
    65
 73
     0
 40
0.0
  0
LTYPE
  5
16
330
5
100
AcDbSymbolTableRecord
100
AcDbLinetypeTableRecord
  2
CONTINUOUS
 70
     0
  3
Solid line
 72
    65
 73
     0
 40
0.0
  0
ENDTAB
  0
TABLE
  2
LAYER
  5
2
330
0
100
AcDbSymbolTable
 70
     3
  0
LAYER
  5
10
330
2
100
AcDbSymbolTableRecord
100
AcDbLayerTableRecord
  2
0
 70
     0
 62
     7
  6
CONTINUOUS
  0
LAYER
  5
72
330
2
100
AcDbSymbolTableRecord
100
AcDbLayerTableRecord
  2
ANNOTATION_TEXT
 70
     0
 62
     7
  6
CONTINUOUS
  0
LAYER
  5
75
330
2
100
AcDbSymbolTableRecord
100
AcDbLayerTableRecord
  2
VISIBLE
 70
     0
 62
     7
  6
CONTINUOUS
  0
ENDTAB
  0
TABLE
  2
STYLE
  5
3
330
0
100
AcDbSymbolTable
 70
     3
  0
STYLE
  5
11
330
3
100
AcDbSymbolTableRecord
100
AcDbTextStyleTableRecord
  2
STANDARD
 70
     0
 40
0.0
 41
1.0
 50
0.0
 71
     0
 42
3.5
  3
txt
  4

  0
STYLE
  5
6E
330
3
100
AcDbSymbolTableRecord
100
AcDbTextStyleTableRecord
  2
ONSHAPE-STANDARD
 70
     0
 40
0.0
 41
1.0
 50
0.0
 71
     0
 42
3.5
  3
NotoSans-Regular.ttf
  4

1001
ACAD
1000
Noto Sans
1071
        0
  0
STYLE
  5
70
330
3
100
AcDbSymbolTableRecord
100
AcDbTextStyleTableRecord
  2
ONSHAPE-STANDARD-DIMENSION
 70
     0
 40
0.0
 41
1.0
 50
0.0
 71
     0
 42
3.5
  3

  4

1001
ACAD
1000
Noto Sans
1071
        0
  0
ENDTAB
  0
TABLE
  2
VIEW
  5
6
330
0
100
AcDbSymbolTable
 70
     0
  0
ENDTAB
  0
TABLE
  2
UCS
  5
7
330
0
100
AcDbSymbolTable
 70
     0
  0
ENDTAB
  0
TABLE
  2
APPID
  5
9
330
0
100
AcDbSymbolTable
 70
     1
  0
APPID
  5
12
330
9
100
AcDbSymbolTableRecord
100
AcDbRegAppTableRecord
  2
ACAD
 70
     0
  0
ENDTAB
  0
TABLE
  2
DIMSTYLE
  5
A
330
0
100
AcDbSymbolTable
 70
     2
  0
DIMSTYLE
105
27
330
A
100
AcDbSymbolTableRecord
100
AcDbDimStyleTableRecord
  2
ISO-25
 70
     0
  3

  4

  5

  6

  7

 40
1.0
 41
2.5
 42
0.625
 43
3.75
 44
1.25
 45
0.0
 46
0.0
 47
0.0
 48
0.0
140
2.5
141
2.5
142
0.0
143
0.03937007874016
144
1.0
145
0.0
146
1.0
147
0.625
 71
     0
 72
     0
 73
     0
 74
     0
 75
     0
 76
     0
 77
     1
 78
     8
170
     0
171
     3
172
     1
173
     0
174
     0
175
     0
176
     0
177
     0
178
     0
270
     2
271
     2
272
     2
273
     2
274
     3
340
11
275
     0
280
     0
281
     0
282
     0
283
     0
284
     8
285
     0
286
     0
287
     3
288
     0
  0
DIMSTYLE
105
6F
330
A
100
AcDbSymbolTableRecord
100
AcDbDimStyleTableRecord
  2
ONSHAPE-ISO-25
 70
     0
  3

  4

  5

  6

  7

 40
1.0
 41
2.5
 42
0.625
 43
3.75
 44
1.25
 45
0.0
 46
0.0
 47
0.0
 48
0.0
140
3.5
141
2.5
142
0.0
143
0.03937
144
1.0
145
0.0
146
1.0
147
0.625
 71
     0
 72
     0
 73
     0
 74
     0
 75
     0
 76
     0
 77
     1
 78
     8
170
     0
171
     3
172
     1
173
     0
174
     0
175
     0
176
     0
177
     0
178
     0
179
     1
270
     2
271
     2
272
     2
273
     2
274
     3
340
70
275
     0
280
     0
281
     0
282
     0
283
     0
284
     8
285
     8
286
     0
287
     3
288
     1
  0
ENDTAB
  0
TABLE
  2
BLOCK_RECORD
  5
1
330
0
100
AcDbSymbolTable
 70
     1
  0
BLOCK_RECORD
  5
1F
330
1
100
AcDbSymbolTableRecord
100
AcDbBlockTableRecord
  2
*MODEL_SPACE
  0
BLOCK_RECORD
  5
1B
330
1
100
AcDbSymbolTableRecord
100
AcDbBlockTableRecord
  2
*PAPER_SPACE
  0
ENDTAB
  0
ENDSEC
  0
SECTION
  2
BLOCKS
  0
BLOCK
  5
20
330
1F
100
AcDbEntity
  8
0
100
AcDbBlockBegin
  2
*MODEL_SPACE
 70
     0
 10
0.0
 20
0.0
 30
0.0
  3
*MODEL_SPACE
  1

  0
ENDBLK
  5
21
330
1F
100
AcDbEntity
  8
0
100
AcDbBlockEnd
  0
BLOCK
  5
1C
330
1B
100
AcDbEntity
 67
     1
  8
0
100
AcDbBlockBegin
  2
*PAPER_SPACE
 70
     0
 10
0.0
 20
0.0
 30
0.0
  3
*PAPER_SPACE
  1

  0
ENDBLK
  5
1D
330
1B
100
AcDbEntity
 67
     1
  8
0
100
AcDbBlockEnd
  0
ENDSEC
  0
SECTION
  2
ENTITIES
  0
MTEXT
  5
71
330
1F
100
AcDbEntity
  8
ANNOTATION_TEXT
 60
     1
100
AcDbMText
 10
1005.279744097167
 20
178.5848639650626
 30
0.0
 40
3.5
 41
0.0
 71
     2
 72
     1
  1

  7
ONSHAPE-STANDARD
1001
ACAD
1000
ACAD_MTEXT_DEFINED_HEIGHT_BEGIN
1070
    46
1040
3.5
1000
ACAD_MTEXT_DEFINED_HEIGHT_END
  0
LINE
  5
76
330
1F
100
AcDbEntity
  8
VISIBLE
100
AcDbLine
 10
1818.079744097167
 20
297.1748639650626
 30
0.0
 11
1552.28334728735
 21
297.1748639650626
 31
0.0
  0
ARC
  5
77
330
1F
100
AcDbEntity
  8
VISIBLE
100
AcDbCircle
 10
1526.88334728735
 20
297.1748639650626
 30
0.0
 40
25.4
100
AcDbArc
 50
180.0
 51
0.0
  0
LINE
  5
78
330
1F
100
AcDbEntity
  8
VISIBLE
100
AcDbLine
 10
1501.48334728735
 20
297.1748639650626
 30
0.0
 11
1385.606747480804
 21
297.1748639650626
 31
0.0
  0
ARC
  5
79
330
1F
100
AcDbEntity
  8
VISIBLE
100
AcDbCircle
 10
1360.206747480804
 20
297.1748639650626
 30
0.0
 40
25.4
100
AcDbArc
 50
180.0
 51
0.0
  0
LINE
  5
7A
330
1F
100
AcDbEntity
  8
VISIBLE
100
AcDbLine
 10
1334.806747480804
 20
297.1748639650626
 30
0.0
 11
1290.14571419614
 21
297.1748639650626
 31
0.0
  0
ARC
  5
7B
330
1F
100
AcDbEntity
  8
VISIBLE
100
AcDbCircle
 10
1264.745714196139
 20
297.1748639650626
 30
0.0
 40
25.4
100
AcDbArc
 50
180.0
 51
0.0
  0
LINE
  5
7C
330
1F
100
AcDbEntity
  8
VISIBLE
100
AcDbLine
 10
1239.34571419614
 20
297.1748639650626
 30
0.0
 11
1119.332702412778
 21
297.1748639650626
 31
0.0
  0
LINE
  5
7D
330
1F
100
AcDbEntity
  8
VISIBLE
100
AcDbLine
 10
1119.332702412778
 20
297.1748639650626
 30
0.0
 11
1119.332702412778
 21
320.5891415185821
 31
0.0
  0
ARC
  5
7E
330
1F
100
AcDbEntity
  8
VISIBLE
100
AcDbCircle
 10
-1112.728702412778
 20
320.5891415185821
 30
0.0
 40
6.603999999999999
210
0.0
220
0.0
230
-1.0
100
AcDbArc
 50
90.0
 51
180.0
  0
LINE
  5
7F
330
1F
100
AcDbEntity
  8
VISIBLE
100
AcDbLine
 10
1087.836702412778
 20
327.193141518582
 30
0.0
 11
1112.728702412778
 21
327.193141518582
 31
0.0
  0
ARC
  5
80
330
1F
100
AcDbEntity
  8
VISIBLE
100
AcDbCircle
 10
-1087.836702412778
 20
320.5891415185821
 30
0.0
 40
6.603999999999999
210
0.0
220
0.0
230
-1.0
100
AcDbArc
 50
0.0
 51
90.0
  0
LINE
  5
81
330
1F
100
AcDbEntity
  8
VISIBLE
100
AcDbLine
 10
1081.232702412778
 20
297.1748639650626
 30
0.0
 11
1081.232702412778
 21
320.5891415185821
 31
0.0
  0
LINE
  5
82
330
1F
100
AcDbEntity
  8
VISIBLE
100
AcDbLine
 10
1081.232702412778
 20
297.1748639650626
 30
0.0
 11
875.185375615531
 21
297.1748639650626
 31
0.0
  0
LINE
  5
83
330
1F
100
AcDbEntity
  8
VISIBLE
100
AcDbLine
 10
875.185375615531
 20
297.1748639650626
 30
0.0
 11
875.185375615531
 21
320.5891415185821
 31
0.0
  0
ARC
  5
84
330
1F
100
AcDbEntity
  8
VISIBLE
100
AcDbCircle
 10
-868.581375615531
 20
320.5891415185821
 30
0.0
 40
6.603999999999999
210
0.0
220
0.0
230
-1.0
100
AcDbArc
 50
90.0
 51
180.0
  0
LINE
  5
85
330
1F
100
AcDbEntity
  8
VISIBLE
100
AcDbLine
 10
843.689375615531
 20
327.193141518582
 30
0.0
 11
868.581375615531
 21
327.193141518582
 31
0.0
  0
ARC
  5
86
330
1F
100
AcDbEntity
  8
VISIBLE
100
AcDbCircle
 10
-843.689375615531
 20
320.5891415185821
 30
0.0
 40
6.603999999999999
210
0.0
220
0.0
230
-1.0
100
AcDbArc
 50
0.0
 51
90.0
  0
LINE
  5
87
330
1F
100
AcDbEntity
  8
VISIBLE
100
AcDbLine
 10
837.0853756155311
 20
297.1748639650626
 30
0.0
 11
837.0853756155311
 21
320.5891415185821
 31
0.0
  0
LINE
  5
88
330
1F
100
AcDbEntity
  8
VISIBLE
100
AcDbLine
 10
837.0853756155311
 20
297.1748639650626
 30
0.0
 11
718.8458472873506
 21
297.1748639650626
 31
0.0
  0
ARC
  5
89
330
1F
100
AcDbEntity
  8
VISIBLE
100
AcDbCircle
 10
693.4458472873505
 20
297.1748639650626
 30
0.0
 40
25.4
100
AcDbArc
 50
180.0
 51
0.0
  0
LINE
  5
8A
330
1F
100
AcDbEntity
  8
VISIBLE
100
AcDbLine
 10
668.0458472873506
 20
297.1748639650626
 30
0.0
 11
640.5885324909136
 21
297.1748639650626
 31
0.0
  0
ARC
  5
8B
330
1F
100
AcDbEntity
  8
VISIBLE
100
AcDbCircle
 10
615.1885324909135
 20
297.1748639650626
 30
0.0
 40
25.4
100
AcDbArc
 50
180.0
 51
0.0
  0
LINE
  5
8C
330
1F
100
AcDbEntity
  8
VISIBLE
100
AcDbLine
 10
589.7885324909136
 20
297.1748639650626
 30
0.0
 11
192.4797440971671
 21
297.1748639650626
 31
0.0
  0
ARC
  5
8D
330
1F
100
AcDbEntity
  8
VISIBLE
100
AcDbCircle
 10
-192.4797440971671
 20
398.7748639650626
 30
0.0
 40
101.6
210
0.0
220
0.0
230
-1.0
100
AcDbArc
 50
270.0
 51
0.0
  0
LINE
  5
8E
330
1F
100
AcDbEntity
  8
VISIBLE
100
AcDbLine
 10
90.87974409716708
 20
440.0498639650626
 30
0.0
 11
90.87974409716708
 21
398.7748639650626
 31
0.0
  0
LINE
  5
8F
330
1F
100
AcDbEntity
  8
VISIBLE
100
AcDbLine
 10
354.002721353942
 20
440.0498639650626
 30
0.0
 11
90.87974409716708
 21
440.0498639650626
 31
0.0
  0
ARC
  5
90
330
1F
100
AcDbEntity
  8
VISIBLE
100
AcDbCircle
 10
379.4027213539421
 20
440.0498639650626
 30
0.0
 40
25.4
100
AcDbArc
 50
0.0
 51
180.0
  0
LINE
  5
91
330
1F
100
AcDbEntity
  8
VISIBLE
100
AcDbLine
 10
749.0083472873506
 20
440.0498639650626
 30
0.0
 11
404.802721353942
 21
440.0498639650626
 31
0.0
  0
ARC
  5
92
330
1F
100
AcDbEntity
  8
VISIBLE
100
AcDbCircle
 10
774.4083472873506
 20
440.0498639650626
 30
0.0
 40
25.4
100
AcDbArc
 50
0.0
 51
180.0
  0
LINE
  5
93
330
1F
100
AcDbEntity
  8
VISIBLE
100
AcDbLine
 10
837.0853756155311
 20
440.0498639650626
 30
0.0
 11
799.8083472873506
 21
440.0498639650626
 31
0.0
  0
LINE
  5
94
330
1F
100
AcDbEntity
  8
VISIBLE
100
AcDbLine
 10
837.0853756155311
 20
440.0498639650626
 30
0.0
 11
837.0853756155311
 21
422.697141518582
 31
0.0
  0
ARC
  5
95
330
1F
100
AcDbEntity
  8
VISIBLE
100
AcDbCircle
 10
-843.689375615531
 20
422.697141518582
 30
0.0
 40
6.603999999999999
210
0.0
220
0.0
230
-1.0
100
AcDbArc
 50
270.0
 51
0.0
  0
LINE
  5
96
330
1F
100
AcDbEntity
  8
VISIBLE
100
AcDbLine
 10
843.689375615531
 20
416.0931415185819
 30
0.0
 11
868.581375615531
 21
416.0931415185819
 31
0.0
  0
ARC
  5
97
330
1F
100
AcDbEntity
  8
VISIBLE
100
AcDbCircle
 10
-868.581375615531
 20
422.697141518582
 30
0.0
 40
6.603999999999999
210
0.0
220
0.0
230
-1.0
100
AcDbArc
 50
180.0
 51
270.0
  0
LINE
  5
98
330
1F
100
AcDbEntity
  8
VISIBLE
100
AcDbLine
 10
875.185375615531
 20
440.0498639650626
 30
0.0
 11
875.185375615531
 21
422.697141518582
 31
0.0
  0
LINE
  5
99
330
1F
100
AcDbEntity
  8
VISIBLE
100
AcDbLine
 10
1081.232702412778
 20
440.0498639650626
 30
0.0
 11
875.185375615531
 21
440.0498639650626
 31
0.0
  0
LINE
  5
9A
330
1F
100
AcDbEntity
  8
VISIBLE
100
AcDbLine
 10
1081.232702412778
 20
440.0498639650626
 30
0.0
 11
1081.232702412778
 21
422.697141518582
 31
0.0
  0
ARC
  5
9B
330
1F
100
AcDbEntity
  8
VISIBLE
100
AcDbCircle
 10
-1087.836702412778
 20
422.697141518582
 30
0.0
 40
6.603999999999999
210
0.0
220
0.0
230
-1.0
100
AcDbArc
 50
270.0
 51
0.0
  0
LINE
  5
9C
330
1F
100
AcDbEntity
  8
VISIBLE
100
AcDbLine
 10
1087.836702412778
 20
416.0931415185819
 30
0.0
 11
1112.728702412778
 21
416.0931415185819
 31
0.0
  0
ARC
  5
9D
330
1F
100
AcDbEntity
  8
VISIBLE
100
AcDbCircle
 10
-1112.728702412778
 20
422.697141518582
 30
0.0
 40
6.603999999999999
210
0.0
220
0.0
230
-1.0
100
AcDbArc
 50
180.0
 51
270.0
  0
LINE
  5
9E
330
1F
100
AcDbEntity
  8
VISIBLE
100
AcDbLine
 10
1119.332702412778
 20
440.0498639650626
 30
0.0
 11
1119.332702412778
 21
422.697141518582
 31
0.0
  0
LINE
  5
9F
330
1F
100
AcDbEntity
  8
VISIBLE
100
AcDbLine
 10
1188.334978863174
 20
440.0498639650626
 30
0.0
 11
1119.332702412778
 21
440.0498639650626
 31
0.0
  0
ARC
  5
A0
330
1F
100
AcDbEntity
  8
VISIBLE
100
AcDbCircle
 10
1213.734978863174
 20
440.0498639650626
 30
0.0
 40
25.4
100
AcDbArc
 50
0.0
 51
180.0
  0
LINE
  5
A1
330
1F
100
AcDbEntity
  8
VISIBLE
100
AcDbLine
 10
1582.44584728735
 20
440.0498639650626
 30
0.0
 11
1239.134978863174
 21
440.0498639650626
 31
0.0
  0
ARC
  5
A2
330
1F
100
AcDbEntity
  8
VISIBLE
100
AcDbCircle
 10
1607.84584728735
 20
440.0498639650626
 30
0.0
 40
25.4
100
AcDbArc
 50
0.0
 51
180.0
  0
LINE
  5
A3
330
1F
100
AcDbEntity
  8
VISIBLE
100
AcDbLine
 10
1919.679744097167
 20
440.0498639650626
 30
0.0
 11
1633.24584728735
 21
440.0498639650626
 31
0.0
  0
LINE
  5
A4
330
1F
100
AcDbEntity
  8
VISIBLE
100
AcDbLine
 10
1919.679744097167
 20
440.0498639650626
 30
0.0
 11
1919.679744097167
 21
398.7748639650626
 31
0.0
  0
ARC
  5
A5
330
1F
100
AcDbEntity
  8
VISIBLE
100
AcDbCircle
 10
-1818.079744097167
 20
398.7748639650626
 30
0.0
 40
101.6
210
0.0
220
0.0
230
-1.0
100
AcDbArc
 50
180.0
 51
270.0
  0
ARC
  5
A6
330
1F
100
AcDbEntity
  8
VISIBLE
100
AcDbCircle
 10
1614.180768829909
 20
443.7587395425957
 30
0.0
 40
4.457699999999955
100
AcDbArc
 50
330.4612177404385
 51
150.4612177404393
  0
LINE
  5
A7
330
1F
100
AcDbEntity
  8
VISIBLE
100
AcDbLine
 10
1523.078711267895
 20
292.0321599244375
 30
0.0
 11
1610.302470932052
 21
445.9564416847148
 31
0.0
  0
LINE
  5
A8
330
1F
100
AcDbEntity
  8
VISIBLE
100
AcDbLine
 10
1530.835307063609
 20
287.6367556401992
 30
0.0
 11
1618.059066727766
 21
441.5610374004764
 31
0.0
  0
CIRCLE
  5
A9
330
1F
100
AcDbEntity
  8
VISIBLE
100
AcDbCircle
 10
-827.8104355608835
 20
390.693141518582
 30
0.0
 40
3.302
210
0.0
220
0.0
230
-1.0
  0
CIRCLE
  5
AA
330
1F
100
AcDbEntity
  8
VISIBLE
100
AcDbCircle
 10
-777.7231318154336
 20
394.3794993559161
 30
0.0
 40
3.302
210
0.0
220
0.0
230
-1.0
  0
CIRCLE
  5
AB
330
1F
100
AcDbEntity
  8
VISIBLE
100
AcDbCircle
 10
-792.087198103794
 20
342.4478750826124
 30
0.0
 40
3.302
210
0.0
220
0.0
230
-1.0
  0
CIRCLE
  5
AC
330
1F
100
AcDbEntity
  8
VISIBLE
100
AcDbCircle
 10
-1138.922425928583
 20
418.1041127710479
 30
0.0
 40
3.302
210
0.0
220
0.0
230
-1.0
  0
ARC
  5
AD
330
1F
100
AcDbEntity
  8
VISIBLE
100
AcDbCircle
 10
774.3346854089485
 20
447.3902701478067
 30
0.0
 40
4.4577
100
AcDbArc
 50
330.4612177404425
 51
150.4612177404406
  0
LINE
  5
AE
330
1F
100
AcDbEntity
  8
VISIBLE
100
AcDbLine
 10
683.2326278469341
 20
295.6636905296486
 30
0.0
 11
770.4563875110915
 21
449.5879722899259
 31
0.0
  0
ARC
  5
AF
330
1F
100
AcDbEntity
  8
VISIBLE
100
AcDbCircle
 10
687.1109257447915
 20
293.4659883875296
 30
0.0
 40
4.4577
100
AcDbArc
 50
150.4612177404439
 51
330.4612177404418
  0
LINE
  5
B0
330
1F
100
AcDbEntity
  8
VISIBLE
100
AcDbLine
 10
690.989223642649
 20
291.2682862454104
 30
0.0
 11
778.2129833068061
 21
445.1925680056876
 31
0.0
  0
LINE
  5
B1
330
1F
100
AcDbEntity
  8
VISIBLE
100
AcDbLine
 10
1364.588635560884
 20
314.493141518582
 30
0.0
 11
1364.588635560884
 21
352.593141518582
 31
0.0
  0
ARC
  5
B2
330
1F
100
AcDbEntity
  8
VISIBLE
100
AcDbCircle
 10
-1292.947935560884
 20
352.593141518582
 30
0.0
 40
71.6407
210
0.0
220
0.0
230
-1.0
100
AcDbArc
 50
90.0
 51
180.0
  0
LINE
  5
B3
330
1F
100
AcDbEntity
  8
VISIBLE
100
AcDbLine
 10
1292.947935560884
 20
424.2338415185821
 30
0.0
 11
1280.247935560884
 21
424.2338415185821
 31
0.0
  0
ARC
  5
B4
330
1F
100
AcDbEntity
  8
VISIBLE
100
AcDbCircle
 10
1280.247935560884
 20
419.7761415185821
 30
0.0
 40
4.4577
100
AcDbArc
 50
90.0
 51
270.0
  0
LINE
  5
B5
330
1F
100
AcDbEntity
  8
VISIBLE
100
AcDbLine
 10
1355.673235560884
 20
314.493141518582
 30
0.0
 11
1355.673235560884
 21
352.593141518582
 31
0.0
  0
ARC
  5
B6
330
1F
100
AcDbEntity
  8
VISIBLE
100
AcDbCircle
 10
1360.130935560884
 20
314.493141518582
 30
0.0
 40
4.4577
100
AcDbArc
 50
180.0
 51
0.0
  0
LINE
  5
B7
330
1F
100
AcDbEntity
  8
VISIBLE
100
AcDbLine
 10
1208.77264831283
 20
427.3631017289611
 30
0.0
 11
1223.950775276753
 21
393.2724704090035
 31
0.0
  0
ARC
  5
B8
330
1F
100
AcDbEntity
  8
VISIBLE
100
AcDbCircle
 10
-1227.863785586504
 20
392.1288650549674
 30
0.0
 40
4.0767
210
0.0
220
0.0
230
-1.0
100
AcDbArc
 50
205.7086189605106
 51
16.29138103949308
  0
LINE
  5
B9
330
1F
100
AcDbEntity
  8
VISIBLE
100
AcDbLine
 10
1261.093911764644
 20
403.520026044435
 30
0.0
 11
1231.536940294216
 21
390.3604144949549
 31
0.0
  0
LINE
  5
BA
330
1F
100
AcDbEntity
  8
VISIBLE
100
AcDbLine
 10
1261.093911764644
 20
403.520026044435
 30
0.0
 11
1275.96038011105
 21
370.1293914403233
 31
0.0
  0
LINE
  5
BB
330
1F
100
AcDbEntity
  8
VISIBLE
100
AcDbLine
 10
1275.96038011105
 20
370.1293914403233
 30
0.0
 11
1246.403408640623
 21
356.9697798908432
 31
0.0
  0
ARC
  5
BC
330
1F
100
AcDbEntity
  8
VISIBLE
100
AcDbCircle
 10
-1245.259803286588
 20
353.0567695810918
 30
0.0
 40
4.0767
210
0.0
220
0.0
230
-1.0
100
AcDbArc
 50
295.708618960511
 51
106.2913810394865
  0
LINE
  5
BD
330
1F
100
AcDbEntity
  8
VISIBLE
100
AcDbLine
 10
1243.491352726575
 20
349.3836148733791
 30
0.0
 11
1258.669479690498
 21
315.2929835534215
 31
0.0
  0
ARC
  5
BE
330
1F
100
AcDbEntity
  8
VISIBLE
100
AcDbCircle
 10
1263.011327242471
 20
316.4272750493399
 30
0.0
 40
4.48756697579932
100
AcDbArc
 50
194.6410807079736
 51
23.99999999999834
  0
LINE
  5
BF
330
1F
100
AcDbEntity
  8
VISIBLE
100
AcDbLine
 10
1252.925141215612
 20
350.1143220337465
 30
0.0
 11
1267.110923669079
 21
318.2525329766544
 31
0.0
  0
LINE
  5
C0
330
1F
100
AcDbEntity
  8
VISIBLE
100
AcDbLine
 10
1287.731223151795
 20
365.6109881349344
 30
0.0
 11
1252.925141215612
 21
350.1143220337465
 31
0.0
  0
LINE
  5
C1
330
1F
100
AcDbEntity
  8
VISIBLE
100
AcDbLine
 10
1265.612315070033
 20
415.2908690851798
 30
0.0
 11
1287.731223151795
 21
365.6109881349344
 31
0.0
  0
LINE
  5
C2
330
1F
100
AcDbEntity
  8
VISIBLE
100
AcDbLine
 10
1265.612315070033
 20
415.2908690851798
 30
0.0
 11
1230.806233133849
 21
399.7942029839919
 31
0.0
  0
LINE
  5
C3
330
1F
100
AcDbEntity
  8
VISIBLE
100
AcDbLine
 10
1216.620450680383
 20
431.6559920410841
 30
0.0
 11
1230.806233133849
 21
399.7942029839919
 31
0.0
  0
ARC
  5
C4
330
1F
100
AcDbEntity
  8
VISIBLE
100
AcDbCircle
 10
1212.520854253774
 20
429.8307341137696
 30
0.0
 40
4.487566975799349
100
AcDbArc
 50
23.99999999999967
 51
213.358919292023
  0
ARC
  5
C5
330
1F
100
AcDbEntity
  8
VISIBLE
100
AcDbCircle
 10
-964.8448775056887
 20
331.5370836679154
 30
0.0
 40
4.0767
210
0.0
220
0.0
230
-1.0
100
AcDbArc
 50
139.7086189605175
 51
310.2913810394909
  0
LINE
  5
C6
330
1F
100
AcDbEntity
  8
VISIBLE
100
AcDbLine
 10
967.9544440971671
 20
334.1733838221394
 30
0.0
 11
967.9544440971671
 21
362.3310503307355
 31
0.0
  0
ARC
  5
C7
330
1F
100
AcDbEntity
  8
VISIBLE
100
AcDbCircle
 10
-964.8448775056887
 20
364.9673504849596
 30
0.0
 40
4.0767
210
0.0
220
0.0
230
-1.0
100
AcDbArc
 50
49.70861896050727
 51
220.2913810394825
  0
LINE
  5
C8
330
1F
100
AcDbEntity
  8
VISIBLE
100
AcDbLine
 10
934.0509108428691
 20
368.0769170764375
 30
0.0
 11
962.2085773514641
 21
368.0769170764375
 31
0.0
  0
ARC
  5
C9
330
1F
100
AcDbEntity
  8
VISIBLE
100
AcDbCircle
 10
-931.4146106886445
 20
364.9673504849594
 30
0.0
 40
4.0767
210
0.0
220
0.0
230
-1.0
100
AcDbArc
 50
319.7086189605012
 51
130.291381039491
  0
LINE
  5
CA
330
1F
100
AcDbEntity
  8
VISIBLE
100
AcDbLine
 10
928.3050440971671
 20
362.3310503307346
 30
0.0
 11
928.3050440971671
 21
334.1733838221403
 31
0.0
  0
ARC
  5
CB
330
1F
100
AcDbEntity
  8
VISIBLE
100
AcDbCircle
 10
-931.4146106886446
 20
331.5370836679154
 30
0.0
 40
4.0767
210
0.0
220
0.0
230
-1.0
100
AcDbArc
 50
229.708618960509
 51
40.29138103949887
  0
LINE
  5
CC
330
1F
100
AcDbEntity
  8
VISIBLE
100
AcDbLine
 10
934.0509108428691
 20
328.4275170764374
 30
0.0
 11
962.2085773514642
 21
328.4275170764374
 31
0.0
  0
LINE
  5
CD
330
1F
100
AcDbEntity
  8
VISIBLE
100
AcDbLine
 10
1054.619735560884
 20
386.133841518582
 30
0.0
 11
1054.619735560884
 21
428.793141518582
 31
0.0
  0
LINE
  5
CE
330
1F
100
AcDbEntity
  8
VISIBLE
100
AcDbLine
 10
1032.801135560884
 20
386.133841518582
 30
0.0
 11
1054.619735560884
 21
386.133841518582
 31
0.0
  0
LINE
  5
CF
330
1F
100
AcDbEntity
  8
VISIBLE
100
AcDbLine
 10
1032.801135560884
 20
428.793141518582
 30
0.0
 11
1032.801135560884
 21
386.133841518582
 31
0.0
  0
ARC
  5
D0
330
1F
100
AcDbEntity
  8
VISIBLE
100
AcDbCircle
 10
1028.343435560884
 20
428.793141518582
 30
0.0
 40
4.4577
100
AcDbArc
 50
0.0
 51
180.0
  0
LINE
  5
D1
330
1F
100
AcDbEntity
  8
VISIBLE
100
AcDbLine
 10
1023.885735560884
 20
382.9643082642845
 30
0.0
 11
1023.885735560884
 21
428.793141518582
 31
0.0
  0
ARC
  5
D2
330
1F
100
AcDbEntity
  8
VISIBLE
100
AcDbCircle
 10
-1026.995302152362
 20
380.32800811006
 30
0.0
 40
4.0767
210
0.0
220
0.0
230
-1.0
100
AcDbArc
 50
229.708618960509
 51
40.29138103949212
  0
LINE
  5
D3
330
1F
100
AcDbEntity
  8
VISIBLE
100
AcDbLine
 10
1063.535135560884
 20
428.793141518582
 30
0.0
 11
1063.535135560884
 21
382.9643082642845
 31
0.0
  0
ARC
  5
D4
330
1F
100
AcDbEntity
  8
VISIBLE
100
AcDbCircle
 10
1059.077435560884
 20
428.793141518582
 30
0.0
 40
4.4577
100
AcDbArc
 50
0.0
 51
180.0
  0
ARC
  5
D5
330
1F
100
AcDbEntity
  8
VISIBLE
100
AcDbCircle
 10
484.7076204678331
 20
323.5101415185821
 30
0.0
 40
4.4577
100
AcDbArc
 50
270.0
 51
90.0
  0
LINE
  5
D6
330
1F
100
AcDbEntity
  8
VISIBLE
100
AcDbLine
 10
472.007620467833
 20
327.9678415185821
 30
0.0
 11
484.7076204678331
 21
327.9678415185821
 31
0.0
  0
ARC
  5
D7
330
1F
100
AcDbEntity
  8
VISIBLE
100
AcDbCircle
 10
-472.007620467833
 20
403.3931415185829
 30
0.0
 40
75.42530000000001
210
0.0
220
0.0
230
-1.0
100
AcDbArc
 50
270.0
 51
300.4138616214948
  0
LINE
  5
D8
330
1F
100
AcDbEntity
  8
VISIBLE
100
AcDbLine
 10
423.3340631086201
 20
344.5049252153566
 30
0.0
 11
433.8241342138271
 21
338.347025127362
 31
0.0
  0
ARC
  5
D9
330
1F
100
AcDbEntity
  8
VISIBLE
100
AcDbCircle
 10
417.7984541399891
 20
335.0749359557439
 30
0.0
 40
10.9347
100
AcDbArc
 50
59.58613837850468
 51
114.0000000000005
  0
LINE
  5
DA
330
1F
100
AcDbEntity
  8
VISIBLE
100
AcDbLine
 10
384.024077784502
 20
332.0071340884547
 30
0.0
 11
413.350910968948
 21
345.0642814714284
 31
0.0
  0
LINE
  5
DB
330
1F
100
AcDbEntity
  8
VISIBLE
100
AcDbLine
 10
369.1576094380961
 20
365.3977686925663
 30
0.0
 11
384.024077784502
 21
332.0071340884547
 31
0.0
  0
LINE
  5
DC
330
1F
100
AcDbEntity
  8
VISIBLE
100
AcDbLine
 10
398.7145809085221
 20
378.5573802420462
 30
0.0
 11
369.1576094380961
 21
365.3977686925663
 31
0.0
  0
ARC
  5
DD
330
1F
100
AcDbEntity
  8
VISIBLE
100
AcDbCircle
 10
-399.858186262558
 20
382.4703905517974
 30
0.0
 40
4.0767
210
0.0
220
0.0
230
-1.0
100
AcDbArc
 50
115.7086189605021
 51
286.2913810394933
  0
LINE
  5
DE
330
1F
100
AcDbEntity
  8
VISIBLE
100
AcDbLine
 10
401.62663682257
 20
386.1435452595103
 30
0.0
 11
382.9939207335951
 21
427.9933107930643
 31
0.0
  0
ARC
  5
DF
330
1F
100
AcDbEntity
  8
VISIBLE
100
AcDbCircle
 10
378.6520731816231
 20
426.8590192971459
 30
0.0
 40
4.48756697579931
100
AcDbArc
 50
14.64108070797575
 51
203.999999999998
  0
LINE
  5
E0
330
1F
100
AcDbEntity
  8
VISIBLE
100
AcDbLine
 10
392.192848333533
 20
385.4128380991429
 30
0.0
 11
374.552476755014
 21
425.0337613698314
 31
0.0
  0
LINE
  5
E1
330
1F
100
AcDbEntity
  8
VISIBLE
100
AcDbLine
 10
392.192848333533
 20
385.4128380991429
 30
0.0
 11
357.386766397351
 21
369.9161719979552
 31
0.0
  0
LINE
  5
E2
330
1F
100
AcDbEntity
  8
VISIBLE
100
AcDbLine
 10
357.386766397351
 20
369.9161719979552
 30
0.0
 11
379.5056744791131
 21
320.2362910477099
 31
0.0
  0
LINE
  5
E3
330
1F
100
AcDbEntity
  8
VISIBLE
100
AcDbLine
 10
379.5056744791131
 20
320.2362910477099
 30
0.0
 11
416.9771308366261
 21
336.9196582983616
 31
0.0
  0
ARC
  5
E4
330
1F
100
AcDbEntity
  8
VISIBLE
100
AcDbCircle
 10
417.7984541399891
 20
335.0749359557439
 30
0.0
 40
2.0193
100
AcDbArc
 50
59.58613837849684
 51
114.000000000001
  0
LINE
  5
E5
330
1F
100
AcDbEntity
  8
VISIBLE
100
AcDbLine
 10
418.820709454754
 20
336.816362543756
 30
0.0
 11
429.3107805599611
 21
330.6584624557614
 31
0.0
  0
ARC
  5
E6
330
1F
100
AcDbEntity
  8
VISIBLE
100
AcDbCircle
 10
-472.007620467833
 20
403.3931415185823
 30
0.0
 40
84.3407
210
0.0
220
0.0
230
-1.0
100
AcDbArc
 50
270.0
 51
300.4138616214948
  0
LINE
  5
E7
330
1F
100
AcDbEntity
  8
VISIBLE
100
AcDbLine
 10
472.007620467833
 20
319.0524415185821
 30
0.0
 11
484.7076204678331
 21
319.0524415185821
 31
0.0
  0
CIRCLE
  5
E8
330
1F
100
AcDbEntity
  8
VISIBLE
100
AcDbCircle
 10
-1196.603011190535
 20
319.120615159077
 30
0.0
 40
3.302
210
0.0
220
0.0
230
-1.0
  0
ARC
  5
E9
330
1F
100
AcDbEntity
  8
VISIBLE
100
AcDbCircle
 10
914.0434355608837
 20
428.793141518582
 30
0.0
 40
4.4577
100
AcDbArc
 50
0.0
 51
180.0
  0
LINE
  5
EA
330
1F
100
AcDbEntity
  8
VISIBLE
100
AcDbLine
 10
909.5857355608838
 20
382.9643082642845
 30
0.0
 11
909.5857355608838
 21
428.793141518582
 31
0.0
  0
ARC
  5
EB
330
1F
100
AcDbEntity
  8
VISIBLE
100
AcDbCircle
 10
-912.6953021523618
 20
380.3280081100599
 30
0.0
 40
4.0767
210
0.0
220
0.0
230
-1.0
100
AcDbArc
 50
229.708618960509
 51
40.2913810394915
  0
LINE
  5
EC
330
1F
100
AcDbEntity
  8
VISIBLE
100
AcDbLine
 10
943.4892688151814
 20
377.218441518582
 30
0.0
 11
915.3316023065862
 21
377.218441518582
 31
0.0
  0
ARC
  5
ED
330
1F
100
AcDbEntity
  8
VISIBLE
100
AcDbCircle
 10
-946.1255689694059
 20
380.32800811006
 30
0.0
 40
4.0767
210
0.0
220
0.0
230
-1.0
100
AcDbArc
 50
139.7086189605079
 51
310.2913810394909
  0
LINE
  5
EE
330
1F
100
AcDbEntity
  8
VISIBLE
100
AcDbLine
 10
949.2351355608837
 20
428.793141518582
 30
0.0
 11
949.2351355608837
 21
382.9643082642845
 31
0.0
  0
ARC
  5
EF
330
1F
100
AcDbEntity
  8
VISIBLE
100
AcDbCircle
 10
944.7774355608838
 20
428.793141518582
 30
0.0
 40
4.4577
100
AcDbArc
 50
0.0
 51
180.0
  0
LINE
  5
F0
330
1F
100
AcDbEntity
  8
VISIBLE
100
AcDbLine
 10
940.3197355608837
 20
386.133841518582
 30
0.0
 11
940.3197355608837
 21
428.793141518582
 31
0.0
  0
LINE
  5
F1
330
1F
100
AcDbEntity
  8
VISIBLE
100
AcDbLine
 10
940.3197355608837
 20
386.133841518582
 30
0.0
 11
918.5011355608838
 21
386.133841518582
 31
0.0
  0
LINE
  5
F2
330
1F
100
AcDbEntity
  8
VISIBLE
100
AcDbLine
 10
918.5011355608838
 20
386.133841518582
 30
0.0
 11
918.5011355608838
 21
428.793141518582
 31
0.0
  0
ARC
  5
F3
330
1F
100
AcDbEntity
  8
VISIBLE
100
AcDbCircle
 10
680.1729355608835
 20
419.7761415185821
 30
0.0
 40
4.4577
100
AcDbArc
 50
270.0
 51
90.0
  0
ARC
  5
F4
330
1F
100
AcDbEntity
  8
VISIBLE
100
AcDbCircle
 10
-680.1729355608835
 20
352.593141518582
 30
0.0
 40
71.6407
210
0.0
220
0.0
230
-1.0
100
AcDbArc
 50
0.0
 51
90.0
  0
LINE
  5
F5
330
1F
100
AcDbEntity
  8
VISIBLE
100
AcDbLine
 10
608.5322355608835
 20
314.4931415185821
 30
0.0
 11
608.5322355608835
 21
352.593141518582
 31
0.0
  0
ARC
  5
F6
330
1F
100
AcDbEntity
  8
VISIBLE
100
AcDbCircle
 10
612.9899355608835
 20
314.4931415185821
 30
0.0
 40
4.4577
100
AcDbArc
 50
180.0
 51
0.0
  0
LINE
  5
F7
330
1F
100
AcDbEntity
  8
VISIBLE
100
AcDbLine
 10
617.4476355608836
 20
314.493141518582
 30
0.0
 11
617.4476355608836
 21
352.593141518582
 31
0.0
  0
ARC
  5
F8
330
1F
100
AcDbEntity
  8
VISIBLE
100
AcDbCircle
 10
-680.1729355608835
 20
352.593141518582
 30
0.0
 40
62.7253
210
0.0
220
0.0
230
-1.0
100
AcDbArc
 50
0.0
 51
90.0
  0
CIRCLE
  5
F9
330
1F
100
AcDbEntity
  8
VISIBLE
100
AcDbCircle
 10
609.7130110869185
 20
418.1041127710455
 30
0.0
 40
3.302
  0
CIRCLE
  5
FA
330
1F
100
AcDbEntity
  8
VISIBLE
100
AcDbCircle
 10
667.3935963488685
 20
319.1206151590742
 30
0.0
 40
3.302
  0
CIRCLE
  5
FB
330
1F
100
AcDbEntity
  8
VISIBLE
100
AcDbCircle
 10
1343.165891845459
 20
319.1206151590711
 30
0.0
 40
3.302
  0
CIRCLE
  5
FC
330
1F
100
AcDbEntity
  8
VISIBLE
100
AcDbCircle
 10
1400.84647710741
 20
418.1041127710428
 30
0.0
 40
3.302
  0
ARC
  5
FD
330
1F
100
AcDbEntity
  8
VISIBLE
100
AcDbCircle
 10
-1292.947935560884
 20
352.593141518582
 30
0.0
 40
62.7253
210
0.0
220
0.0
230
-1.0
100
AcDbArc
 50
90.0
 51
180.0
  0
LINE
  5
FE
330
1F
100
AcDbEntity
  8
VISIBLE
100
AcDbLine
 10
1292.947935560884
 20
415.3184415185819
 30
0.0
 11
1280.247935560884
 21
415.3184415185821
 31
0.0
  0
ARC
  5
FF
330
1F
100
AcDbEntity
  8
VISIBLE
100
AcDbCircle
 10
-1060.425568969406
 20
380.32800811006
 30
0.0
 40
4.0767
210
0.0
220
0.0
230
-1.0
100
AcDbArc
 50
139.7086189605079
 51
310.2913810394909
  0
LINE
  5
100
330
1F
100
AcDbEntity
  8
VISIBLE
100
AcDbLine
 10
1029.631602306586
 20
377.218441518582
 30
0.0
 11
1057.789268815181
 21
377.218441518582
 31
0.0
  0
ARC
  5
101
330
1F
100
AcDbEntity
  8
VISIBLE
100
AcDbCircle
 10
1526.957009165752
 20
289.8344577823183
 30
0.0
 40
4.45769999999995
100
AcDbArc
 50
150.4612177404386
 51
330.4612177404405
  0
ENDSEC
  0
SECTION
  2
OBJECTS
  0
DICTIONARY
  5
C
330
0
100
AcDbDictionary
  3
ACAD_GROUP
350
D
  3
ACAD_LAYOUT
350
1A
  3
ACAD_MATERIAL
350
43
  3
ACAD_MLEADERSTYLE
350
107
  3
ACAD_MLINESTYLE
350
17
  3
ACAD_PLOTSETTINGS
350
19
  3
ACAD_SCALELIST
350
47
  3
ACAD_VISUALSTYLE
350
2A
  3
ACDBVARIABLEDICTIONARY
350
6C
  3
ONSHAPE_DATA
350
102
1001
ACAD
1000
TREAT_AS_HARD
1070
     0
  0
DICTIONARY
  5
D
102
{ACAD_REACTORS
330
C
102
}
330
C
100
AcDbDictionary
1001
ACAD
1000
TREAT_AS_HARD
1070
     0
  0
DICTIONARY
  5
1A
102
{ACAD_REACTORS
330
C
102
}
330
C
100
AcDbDictionary
1001
ACAD
1000
TREAT_AS_HARD
1070
     0
  0
DICTIONARY
  5
43
102
{ACAD_REACTORS
330
C
102
}
330
C
100
AcDbDictionary
  3
BYBLOCK
350
45
  3
BYLAYER
350
44
  3
GLOBAL
350
46
1001
ACAD
1000
TREAT_AS_HARD
1070
     0
  0
DICTIONARY
  5
107
102
{ACAD_REACTORS
330
C
102
}
330
C
100
AcDbDictionary
1001
ACAD
1000
TREAT_AS_HARD
1070
     0
  0
DICTIONARY
  5
17
102
{ACAD_REACTORS
330
C
102
}
330
C
100
AcDbDictionary
  3
STANDARD
350
18
1001
ACAD
1000
TREAT_AS_HARD
1070
     0
  0
DICTIONARY
  5
19
102
{ACAD_REACTORS
330
C
102
}
330
C
100
AcDbDictionary
1001
ACAD
1000
TREAT_AS_HARD
1070
     0
  0
DICTIONARY
  5
47
102
{ACAD_REACTORS
330
C
102
}
330
C
100
AcDbDictionary
  3
A0
350
48
  3
A1
350
49
  3
A2
350
4A
  3
A3
350
4B
  3
A4
350
4C
  3
A5
350
4D
  3
A6
350
4E
  3
A7
350
4F
  3
A8
350
50
  3
A9
350
51
  3
B0
350
52
  3
B1
350
53
  3
B2
350
54
  3
B3
350
55
  3
B4
350
56
  3
B5
350
57
  3
B6
350
58
  3
B7
350
59
  3
B8
350
5A
  3
B9
350
5B
  3
C0
350
5C
  3
C1
350
5D
  3
C2
350
5E
  3
C3
350
5F
  3
C4
350
60
  3
C5
350
61
  3
C6
350
62
  3
C7
350
63
  3
C8
350
64
  3
C9
350
65
  3
D0
350
66
  3
D1
350
67
  3
D2
350
68
1001
ACAD
1000
TREAT_AS_HARD
1070
     0
  0
DICTIONARY
  5
2A
102
{ACAD_REACTORS
330
C
102
}
330
C
100
AcDbDictionary
  3
2DWIREFRAME
350
2F
  3
BASIC
350
32
  3
BRIGHTEN
350
36
  3
COLORCHANGE
350
3A
  3
CONCEPTUAL
350
34
  3
DIM
350
35
  3
EDGECOLOROFF
350
3D
  3
FACEPATTERN
350
39
  3
FLAT
350
2B
  3
FLATWITHEDGES
350
2C
  3
GOURAUD
350
2D
  3
GOURAUDWITHEDGES
350
2E
  3
HIDDEN
350
31
  3
JITTEROFF
350
3B
  3
LINEPATTERN
350
38
  3
OVERHANGOFF
350
3C
  3
REALISTIC
350
33
  3
SHADED
350
42
  3
SHADED_WITH_EDGES
350
41
  3
SHADES_OF_GRAY
350
3E
  3
SKETCHY
350
3F
  3
THICKEN
350
37
  3
WIREFRAME
350
30
  3
X-RAY
350
40
1001
ACAD
1000
TREAT_AS_HARD
1070
     0
  0
DICTIONARY
  5
6C
102
{ACAD_REACTORS
330
C
102
}
330
C
100
AcDbDictionary
  3
CANNOSCALE
350
10E
  3
CTABLESTYLE
350
106
  3
DIMASSOC
350
10C
  3
HIDETEXT
350
10D
  3
MSLTSCALE
350
10F
  3
OLEFRAME
350
6D
  3
PSOLHEIGHT
350
109
  3
PSOLWIDTH
350
108
1001
ACAD
1000
TREAT_AS_HARD
1070
     0
  0
DICTIONARY
  5
102
102
{ACAD_REACTORS
330
C
102
}
330
C
100
AcDbDictionary
  3
DIM_UNITS
360
103
  3
ONSHAPE_VSHARP_EXTENSION
360
105
  3
ONSHAPE_WELD_STANDARD
360
104
1001
ACAD
1000
TREAT_AS_HARD
1070
     1
  0
MATERIAL
  5
45
102
{ACAD_REACTORS
330
43
102
}
102
{ACAD_XDICTIONARY
360
112
102
}
330
43
100
AcDbMaterial
  1
BYBLOCK
  0
MATERIAL
  5
44
102
{ACAD_REACTORS
330
43
102
}
102
{ACAD_XDICTIONARY
360
110
102
}
330
43
100
AcDbMaterial
  1
BYLAYER
  0
MATERIAL
  5
46
102
{ACAD_REACTORS
330
43
102
}
102
{ACAD_XDICTIONARY
360
114
102
}
330
43
100
AcDbMaterial
  1
GLOBAL
  0
MLINESTYLE
  5
18
102
{ACAD_REACTORS
330
17
102
}
330
17
100
AcDbMlineStyle
  2
Standard
 70
     0
  3

 62
   256
 51
90.0
 52
90.0
 71
     2
 49
0.5
 62
   256
  6
BYLAYER
 49
-0.5
 62
   256
  6
BYLAYER
  0
ACAD_PROXY_OBJECT
  5
48
102
{ACAD_REACTORS
330
47
102
}
330
47
100
AcDbZombieObject
 90
      499
 91
      503
 93
       41
310
903313A31580
  0
ACAD_PROXY_OBJECT
  5
49
102
{ACAD_REACTORS
330
47
102
}
330
47
100
AcDbZombieObject
 90
      499
 91
      503
 93
      105
310
903313A324000000000000004000
  0
ACAD_PROXY_OBJECT
  5
4A
102
{ACAD_REACTORS
330
47
102
}
330
47
100
AcDbZombieObject
 90
      499
 91
      503
 93
      105
310
903313A344000000000000104000
  0
ACAD_PROXY_OBJECT
  5
4B
102
{ACAD_REACTORS
330
47
102
}
330
47
100
AcDbZombieObject
 90
      499
 91
      503
 93
      105
310
903313A354000000000000144000
  0
ACAD_PROXY_OBJECT
  5
4C
102
{ACAD_REACTORS
330
47
102
}
330
47
100
AcDbZombieObject
 90
      499
 91
      503
 93
      105
310
903313A384000000000000204000
  0
ACAD_PROXY_OBJECT
  5
4D
102
{ACAD_REACTORS
330
47
102
}
330
47
100
AcDbZombieObject
 90
      499
 91
      503
 93
      113
310
904313A31304000000000000244000
  0
ACAD_PROXY_OBJECT
  5
4E
102
{ACAD_REACTORS
330
47
102
}
330
47
100
AcDbZombieObject
 90
      499
 91
      503
 93
      113
310
904313A31364000000000000304000
  0
ACAD_PROXY_OBJECT
  5
4F
102
{ACAD_REACTORS
330
47
102
}
330
47
100
AcDbZombieObject
 90
      499
 91
      503
 93
      113
310
904313A32304000000000000344000
  0
ACAD_PROXY_OBJECT
  5
50
102
{ACAD_REACTORS
330
47
102
}
330
47
100
AcDbZombieObject
 90
      499
 91
      503
 93
      113
310
904313A333040000000000003E4000
  0
ACAD_PROXY_OBJECT
  5
51
102
{ACAD_REACTORS
330
47
102
}
330
47
100
AcDbZombieObject
 90
      499
 91
      503
 93
      113
310
904313A34304000000000000444000
  0
ACAD_PROXY_OBJECT
  5
52
102
{ACAD_REACTORS
330
47
102
}
330
47
100
AcDbZombieObject
 90
      499
 91
      503
 93
      113
310
904313A35304000000000000494000
  0
ACAD_PROXY_OBJECT
  5
53
102
{ACAD_REACTORS
330
47
102
}
330
47
100
AcDbZombieObject
 90
      499
 91
      503
 93
      121
310
905313A3130304000000000000594000
  0
ACAD_PROXY_OBJECT
  5
54
102
{ACAD_REACTORS
330
47
102
}
330
47
100
AcDbZombieObject
 90
      499
 91
      503
 93
      105
310
903323A310000000000000010100
  0
ACAD_PROXY_OBJECT
  5
55
102
{ACAD_REACTORS
330
47
102
}
330
47
100
AcDbZombieObject
 90
      499
 91
      503
 93
      105
310
903343A310000000000000410100
  0
ACAD_PROXY_OBJECT
  5
56
102
{ACAD_REACTORS
330
47
102
}
330
47
100
AcDbZombieObject
 90
      499
 91
      503
 93
      105
310
903383A310000000000000810100
  0
ACAD_PROXY_OBJECT
  5
57
102
{ACAD_REACTORS
330
47
102
}
330
47
100
AcDbZombieObject
 90
      499
 91
      503
 93
      113
310
90431303A310000000000000910100
  0
ACAD_PROXY_OBJECT
  5
58
102
{ACAD_REACTORS
330
47
102
}
330
47
100
AcDbZombieObject
 90
      499
 91
      503
 93
      121
310
9053130303A310000000000001650100
  0
ACAD_PROXY_OBJECT
  5
59
102
{ACAD_REACTORS
330
47
102
}
330
47
100
AcDbZombieObject
 90
      499
 91
      503
 93
      257
310
90E312F31323822203D2031272D3022000000000000200FC000000000000284000
  0
ACAD_PROXY_OBJECT
  5
5A
102
{ACAD_REACTORS
330
47
102
}
330
47
100
AcDbZombieObject
 90
      499
 91
      503
 93
      249
310
90D312F363422203D2031272D3022000000000000240FC000000000000284000
  0
ACAD_PROXY_OBJECT
  5
5B
102
{ACAD_REACTORS
330
47
102
}
330
47
100
AcDbZombieObject
 90
      499
 91
      503
 93
      249
310
90D312F333222203D2031272D3022000000000000280FC000000000000284000
  0
ACAD_PROXY_OBJECT
  5
5C
102
{ACAD_REACTORS
330
47
102
}
330
47
100
AcDbZombieObject
 90
      499
 91
      503
 93
      249
310
90D312F313622203D2031272D30220000000000002C0FC000000000000284000
  0
ACAD_PROXY_OBJECT
  5
5D
102
{ACAD_REACTORS
330
47
102
}
330
47
100
AcDbZombieObject
 90
      499
 91
      503
 93
      249
310
90D332F333222203D2031272D30220000000000002E0FC000000000000284000
  0
ACAD_PROXY_OBJECT
  5
5E
102
{ACAD_REACTORS
330
47
102
}
330
47
100
AcDbZombieObject
 90
      499
 91
      503
 93
      241
310
90C312F3822203D2031272D3022000000000000300FC000000000000284000
  0
ACAD_PROXY_OBJECT
  5
5F
102
{ACAD_REACTORS
330
47
102
}
330
47
100
AcDbZombieObject
 90
      499
 91
      503
 93
      249
310
90D332F313622203D2031272D3022000000000000320FC000000000000284000
  0
ACAD_PROXY_OBJECT
  5
60
102
{ACAD_REACTORS
330
47
102
}
330
47
100
AcDbZombieObject
 90
      499
 91
      503
 93
      241
310
90C312F3422203D2031272D3022000000000000340FC000000000000284000
  0
ACAD_PROXY_OBJECT
  5
61
102
{ACAD_REACTORS
330
47
102
}
330
47
100
AcDbZombieObject
 90
      499
 91
      503
 93
      241
310
90C332F3822203D2031272D3022000000000000360FC000000000000284000
  0
ACAD_PROXY_OBJECT
  5
62
102
{ACAD_REACTORS
330
47
102
}
330
47
100
AcDbZombieObject
 90
      499
 91
      503
 93
      241
310
90C312F3222203D2031272D3022000000000000380FC000000000000284000
  0
ACAD_PROXY_OBJECT
  5
63
102
{ACAD_REACTORS
330
47
102
}
330
47
100
AcDbZombieObject
 90
      499
 91
      503
 93
      241
310
90C332F3422203D2031272D30220000000000003A0FC000000000000284000
  0
ACAD_PROXY_OBJECT
  5
64
102
{ACAD_REACTORS
330
47
102
}
330
47
100
AcDbZombieObject
 90
      499
 91
      503
 93
      161
310
90A3122203D2031272D30224000000000000284000
  0
ACAD_PROXY_OBJECT
  5
65
102
{ACAD_REACTORS
330
47
102
}
330
47
100
AcDbZombieObject
 90
      499
 91
      503
 93
      257
310
90E312D312F3222203D2031272D30220000000000003E0FC000000000000284000
  0
ACAD_PROXY_OBJECT
  5
66
102
{ACAD_REACTORS
330
47
102
}
330
47
100
AcDbZombieObject
 90
      499
 91
      503
 93
      225
310
90A3322203D2031272D302200000000000002100000000000000284000
  0
ACAD_PROXY_OBJECT
  5
67
102
{ACAD_REACTORS
330
47
102
}
330
47
100
AcDbZombieObject
 90
      499
 91
      503
 93
      225
310
90A3622203D2031272D302200000000000006100000000000000284000
  0
ACAD_PROXY_OBJECT
  5
68
102
{ACAD_REACTORS
330
47
102
}
330
47
100
AcDbZombieObject
 90
      499
 91
      503
 93
      249
310
90D31272D3022203D2031272D30220000000000000A100000000000000284000
  0
ACAD_PROXY_OBJECT
  5
2F
102
{ACAD_REACTORS
330
2A
102
}
330
2A
100
AcDbZombieObject
 90
      499
 91
      501
 93
      436
310
42CC9915DA5C99599C985B595049028333333333333E33F0000000000000F90107901411070040501600405405064090741402480A0340
1001
ACAD
1000
AcDbSavedByObjectVersion
1070
     0
  0
ACAD_PROXY_OBJECT
  5
32
102
{ACAD_REACTORS
330
2A
102
}
330
2A
100
AcDbZombieObject
 90
      499
 91
      501
 93
      388
310
4150985CDA58D07406404333333333333E33F0000000000000F90107A41107004050150841D405064090741402480A0350
1001
ACAD
1000
AcDbSavedByObjectVersion
1070
     0
  0
ACAD_PROXY_OBJECT
  5
36
102
{ACAD_REACTORS
330
2A
102
}
330
2A
100
AcDbZombieObject
 90
      499
 91
      501
 93
      428
310
42109C9A59DA1D195B90C409028333333333333E33F0000000000000F9010790141107004050150841D405064090741402480A029950
1001
ACAD
1000
AcDbSavedByObjectVersion
1070
     0
  0
ACAD_PROXY_OBJECT
  5
3A
102
{ACAD_REACTORS
330
2A
102
}
330
2A
100
AcDbZombieObject
 90
      499
 91
      501
 93
      452
310
42D0DBDB1BDC90DA185B99D95104090240C333333333333E33F0000000000000F90108901411070040501508421405064090741402480A0350
1001
ACAD
1000
AcDbSavedByObjectVersion
1070
     0
  0
ACAD_PROXY_OBJECT
  5
34
102
{ACAD_REACTORS
330
2A
102
}
330
2A
100
AcDbZombieObject
 90
      499
 91
      501
 93
      500
310
4290DBDB98D95C1D1D585B10940D028333333333333E33F0000000000000F90107902409070040501000000000018199010841D405064090740C02480A0340
1001
ACAD
1000
AcDbSavedByObjectVersion
1070
     0
  0
ACAD_PROXY_OBJECT
  5
35
102
{ACAD_REACTORS
330
2A
102
}
330
2A
100
AcDbZombieObject
 90
      499
 91
      501
 93
      412
310
40D11A5B50B409028333333333333E33F0000000000000F9010790141107004050150841D405064090741402480A02677FFFFFD0
1001
ACAD
1000
AcDbSavedByObjectVersion
1070
     0
  0
ACAD_PROXY_OBJECT
  5
3D
102
{ACAD_REACTORS
330
2A
102
}
330
2A
100
AcDbZombieObject
 90
      499
 91
      501
 93
      452
310
43115919D950DBDB1BDC93D999916409028333333333333E33F0000000000000F9010790141107004050150841D405064090741402480A0350
1001
ACAD
1000
AcDbSavedByObjectVersion
1070
     0
  0
ACAD_PROXY_OBJECT
  5
39
102
{ACAD_REACTORS
330
2A
102
}
330
2A
100
AcDbZombieObject
 90
      499
 91
      501
 93
      444
310
42D19858D95C185D1D195C9B90F409028333333333333E33F0000000000000F9010790141107004050150841D405064090741402480A0350
1001
ACAD
1000
AcDbSavedByObjectVersion
1070
     0
  0
ACAD_PROXY_OBJECT
  5
2B
102
{ACAD_REACTORS
330
2A
102
}
330
2A
100
AcDbZombieObject
 90
      499
 91
      501
 93
      380
310
41119B185D240901404333333333333E33F0000000000000F9010740A907004050150841D405064090741402480A1B50
1001
ACAD
1000
AcDbSavedByObjectVersion
1070
     0
  0
ACAD_PROXY_OBJECT
  5
2C
102
{ACAD_REACTORS
330
2A
102
}
330
2A
100
AcDbZombieObject
 90
      499
 91
      501
 93
      468
310
43519B185D15DA5D1A115919D95CD0140901404333333333333E33F0000000000000F90107409019070040501600405405064090741402480A1B50
1001
ACAD
1000
AcDbSavedByObjectVersion
1070
     0
  0
ACAD_PROXY_OBJECT
  5
2D
102
{ACAD_REACTORS
330
2A
102
}
330
2A
100
AcDbZombieObject
 90
      499
 91
      501
 93
      404
310
41D1DBDD5C985D5910240902404333333333333E33F0000000000000F9010740A9070040501641D405064090741402480A1B50
1001
ACAD
1000
AcDbSavedByObjectVersion
1070
     0
  0
ACAD_PROXY_OBJECT
  5
2E
102
{ACAD_REACTORS
330
2A
102
}
330
2A
100
AcDbZombieObject
 90
      499
 91
      501
 93
      492
310
4411DBDD5C985D5915DA5D1A115919D95CD0340902404333333333333E33F0000000000000F90107409019070040501600405405064090741402480A1B50
1001
ACAD
1000
AcDbSavedByObjectVersion
1070
     0
  0
ACAD_PROXY_OBJECT
  5
31
102
{ACAD_REACTORS
330
2A
102
}
330
2A
100
AcDbZombieObject
 90
      499
 91
      501
 93
      476
310
41921A5919195B90640502408333333333333E33F0000000000000F901079024090700405020000000000001110200405405064090740C02480A0340
1001
ACAD
1000
AcDbSavedByObjectVersion
1070
     0
  0
ACAD_PROXY_OBJECT
  5
3B
102
{ACAD_REACTORS
330
2A
102
}
330
2A
100
AcDbZombieObject
 90
      499
 91
      501
 93
      428
310
42529A5D1D195C93D999914409028333333333333E33F0000000000000F9010790141107004050150A41D405064090741402480A0350
1001
ACAD
1000
AcDbSavedByObjectVersion
1070
     0
  0
ACAD_PROXY_OBJECT
  5
38
102
{ACAD_REACTORS
330
2A
102
}
330
2A
100
AcDbZombieObject
 90
      499
 91
      501
 93
      444
310
42D31A5B995C185D1D195C9B90E409028333333333333E33F0000000000000F9010790141107004050750841D405064090741402483A0350
1001
ACAD
1000
AcDbSavedByObjectVersion
1070
     0
  0
ACAD_PROXY_OBJECT
  5
3C
102
{ACAD_REACTORS
330
2A
102
}
330
2A
100
AcDbZombieObject
 90
      499
 91
      501
 93
      444
310
42D3DD995C9A185B99D3D999915409028333333333333E33F0000000000000F9010790141107004050150941D405064090741402480A0350
1001
ACAD
1000
AcDbSavedByObjectVersion
1070
     0
  0
ACAD_PROXY_OBJECT
  5
33
102
{ACAD_REACTORS
330
2A
102
}
330
2A
100
AcDbZombieObject
 90
      499
 91
      501
 93
      428
310
425499585B1A5CDD1A58D08409038333333333333E33F0000000000000F9010740A907004050150800405405064090740C02480A1B40
1001
ACAD
1000
AcDbSavedByObjectVersion
1070
     0
  0
ACAD_PROXY_OBJECT
  5
42
102
{ACAD_REACTORS
330
2A
102
}
330
2A
100
AcDbZombieObject
 90
      499
 91
      501
 93
      420
310
4194DA1859195911B40902404333333333333E33F0000000000000F9010740A41107004050150800405405064090840C02480A0B40
1001
ACAD
1000
AcDbSavedByObjectVersion
1070
     0
  0
ACAD_PROXY_OBJECT
  5
41
102
{ACAD_REACTORS
330
2A
102
}
330
2A
100
AcDbZombieObject
 90
      499
 91
      501
 93
      516
310
4454DA18591959081DDA5D1A08195919D95CD1A40902404333333333333E33F0000000000000F901074090142907004050250800405405064090740C02480A0B40
1001
ACAD
1000
AcDbSavedByObjectVersion
1070
     0
  0
ACAD_PROXY_OBJECT
  5
3E
102
{ACAD_REACTORS
330
2A
102
}
330
2A
100
AcDbZombieObject
 90
      499
 91
      501
 93
      532
310
4394DA1859195CC81BD98811DC985E5174090240C333333333333E33F0000000000000F901079024090741D01000000000000111010841D405064090740C02480A0340
1001
ACAD
1000
AcDbSavedByObjectVersion
1070
     0
  0
ACAD_PROXY_OBJECT
  5
3F
102
{ACAD_REACTORS
330
2A
102
}
330
2A
100
AcDbZombieObject
 90
      499
 91
      501
 93
      476
310
41D4DAD95D18DA1E51840502408333333333333E33F0000000000000F901079024090741D01000000000000111010B41D405064090741802480A0340
1001
ACAD
1000
AcDbSavedByObjectVersion
1070
     0
  0
ACAD_PROXY_OBJECT
  5
37
102
{ACAD_REACTORS
330
2A
102
}
330
2A
100
AcDbZombieObject
 90
      499
 91
      501
 93
      412
310
41D51A1A58DAD95B90D409028333333333333E33F0000000000000F9010790141107004050150C41D405064090741402480A0350
1001
ACAD
1000
AcDbSavedByObjectVersion
1070
     0
  0
ACAD_PROXY_OBJECT
  5
30
102
{ACAD_REACTORS
330
2A
102
}
330
2A
100
AcDbZombieObject
 90
      499
 91
      501
 93
      420
310
4255DA5C99599C985B595059028333333333333E33F0000000000000F90107901411070040501600405405064090740C02480A0340
1001
ACAD
1000
AcDbSavedByObjectVersion
1070
     0
  0
ACAD_PROXY_OBJECT
  5
40
102
{ACAD_REACTORS
330
2A
102
}
330
2A
100
AcDbZombieObject
 90
      499
 91
      501
 93
      404
310
41560B54985E51940902404000000000000E03F0000000000000F9010740501907004050150841D405064090740C02480A1B40
1001
ACAD
1000
AcDbSavedByObjectVersion
1070
     0
  0
DICTIONARYVAR
  5
10E
102
{ACAD_REACTORS
330
6C
102
}
330
6C
100
DictionaryVariables
280
     0
  1
1:1
  0
DICTIONARYVAR
  5
106
102
{ACAD_REACTORS
330
6C
102
}
330
6C
100
DictionaryVariables
280
     0
  1
Standard
  0
DICTIONARYVAR
  5
10C
102
{ACAD_REACTORS
330
6C
102
}
330
6C
100
DictionaryVariables
280
     0
  1
2
  0
DICTIONARYVAR
  5
10D
102
{ACAD_REACTORS
330
6C
102
}
330
6C
100
DictionaryVariables
280
     0
  1
1
  0
DICTIONARYVAR
  5
10F
102
{ACAD_REACTORS
330
6C
102
}
330
6C
100
DictionaryVariables
280
     0
  1
1
  0
DICTIONARYVAR
  5
6D
102
{ACAD_REACTORS
330
6C
102
}
330
6C
100
DictionaryVariables
280
     0
  1
0
  0
DICTIONARYVAR
  5
109
102
{ACAD_REACTORS
330
6C
102
}
330
6C
100
DictionaryVariables
280
     0
  1
80.000000
  0
DICTIONARYVAR
  5
108
102
{ACAD_REACTORS
330
6C
102
}
330
6C
100
DictionaryVariables
280
     0
  1
5.000000
  0
XRECORD
  5
103
102
{ACAD_REACTORS
330
102
102
}
330
102
100
AcDbXrecord
 70
     4
  0
XRECORD
  5
105
102
{ACAD_REACTORS
330
102
102
}
330
102
100
AcDbXrecord
 90
        0
  0
XRECORD
  5
104
102
{ACAD_REACTORS
330
102
102
}
330
102
100
AcDbXrecord
 90
        1
  0
DICTIONARY
  5
112
330
45
100
AcDbDictionary
  3
ACAD_XREC_ROUNDTRIP
360
113
1001
ACAD
1000
TREAT_AS_HARD
1070
     1
  0
DICTIONARY
  5
110
330
44
100
AcDbDictionary
  3
ACAD_XREC_ROUNDTRIP
360
111
1001
ACAD
1000
TREAT_AS_HARD
1070
     1
  0
DICTIONARY
  5
114
330
46
100
AcDbDictionary
  3
ACAD_XREC_ROUNDTRIP
360
115
1001
ACAD
1000
TREAT_AS_HARD
1070
     1
  0
XRECORD
  5
113
102
{ACAD_REACTORS
330
112
102
}
330
112
100
AcDbXrecord
102
MATERIAL
148
0.0
149
0.0
149
0.0
 93
        0
 94
      127
282
     0
 72
     1
 77
     1
171
     1
175
     1
179
     1
273
     0
  0
XRECORD
  5
111
102
{ACAD_REACTORS
330
110
102
}
330
110
100
AcDbXrecord
102
MATERIAL
148
0.0
149
0.0
149
0.0
 93
        0
 94
      127
282
     0
 72
     1
 77
     1
171
     1
175
     1
179
     1
273
     0
  0
XRECORD
  5
115
102
{ACAD_REACTORS
330
114
102
}
330
114
100
AcDbXrecord
102
MATERIAL
148
0.0
149
0.0
149
0.0
 93
        0
 94
      127
282
     0
 72
     1
 77
     1
171
     1
175
     1
179
     1
273
     0
  0
ENDSEC
  0
EOF
